<?xml version="1.0" encoding="UTF-8"?>
<svg id="_Слой_1" data-name=" Слой 1" xmlns="http://www.w3.org/2000/svg" xmlns:xlink="http://www.w3.org/1999/xlink" viewBox="0 0 595 958">
  <defs>
    <style>
      .cls-1 {
        fill: url(#_Безымянный_градиент_23-6);
      }

      .cls-1, .cls-2, .cls-3, .cls-4, .cls-5, .cls-6, .cls-7, .cls-8, .cls-9, .cls-10, .cls-11, .cls-12, .cls-13 {
        stroke-width: 0px;
      }

      .cls-2 {
        fill: url(#_Безымянный_градиент_24);
      }

      .cls-3 {
        fill: url(#_Безымянный_градиент_23);
      }

      .cls-4 {
        fill: url(#_Безымянный_градиент_23-8);
      }

      .cls-5 {
        fill: #382212;
      }

      .cls-6 {
        fill: url(#_Безымянный_градиент_23-10);
      }

      .cls-7 {
        fill: url(#_Безымянный_градиент_23-4);
      }

      .cls-8 {
        fill: url(#_Безымянный_градиент_23-3);
      }

      .cls-9 {
        fill: url(#_Безымянный_градиент_23-7);
      }

      .cls-10 {
        fill: url(#_Безымянный_градиент_23-5);
      }

      .cls-11 {
        fill: url(#_Безымянный_градиент_23-2);
      }

      .cls-12 {
        fill: url(#_Безымянный_градиент_23-9);
      }

      .cls-13 {
        fill: url(#_Безымянный_градиент_23-11);
      }
    </style>
    <linearGradient id="_Безымянный_градиент_23" data-name="Безымянный градиент 23" x1="415.9" y1="451.12" x2="415.9" y2="333.35" gradientTransform="translate(0 958) scale(1 -1)" gradientUnits="userSpaceOnUse">
      <stop offset="0" stop-color="#9c5246"/>
      <stop offset="1" stop-color="#692c22"/>
    </linearGradient>
    <linearGradient id="_Безымянный_градиент_23-2" data-name="Безымянный градиент 23" x1="405.61" y1="671.13" x2="405.61" y2="510.58" xlink:href="#_Безымянный_градиент_23"/>
    <linearGradient id="_Безымянный_градиент_23-3" data-name="Безымянный градиент 23" x1="427.94" y1="743.19" x2="427.94" y2="378.66" xlink:href="#_Безымянный_градиент_23"/>
    <linearGradient id="_Безымянный_градиент_23-4" data-name="Безымянный градиент 23" x1="227.5" y1="800.86" x2="227.5" y2="540.23" xlink:href="#_Безымянный_градиент_23"/>
    <linearGradient id="_Безымянный_градиент_23-5" data-name="Безымянный градиент 23" x1="389.54" y1="697.73" x2="389.54" y2="333.35" xlink:href="#_Безымянный_градиент_23"/>
    <linearGradient id="_Безымянный_градиент_23-6" data-name="Безымянный градиент 23" x1="75.04" y1="551.32" x2="75.04" y2="395.91" xlink:href="#_Безымянный_градиент_23"/>
    <linearGradient id="_Безымянный_градиент_23-7" data-name="Безымянный градиент 23" x1="214.18" y1="768.25" x2="214.18" y2="412.64" xlink:href="#_Безымянный_градиент_23"/>
    <linearGradient id="_Безымянный_градиент_24" data-name="Безымянный градиент 24" x1="277.89" y1="725.15" x2="277.89" y2="660.86" gradientTransform="translate(0 958) scale(1 -1)" gradientUnits="userSpaceOnUse">
      <stop offset="0" stop-color="#552119"/>
      <stop offset="1" stop-color="#6c332a"/>
    </linearGradient>
    <linearGradient id="_Безымянный_градиент_23-8" data-name="Безымянный градиент 23" x1="106.52" y1="475.73" x2="106.52" y2="360.62" xlink:href="#_Безымянный_градиент_23"/>
    <linearGradient id="_Безымянный_градиент_23-9" data-name="Безымянный градиент 23" x1="126.88" y1="487.83" x2="126.88" y2="345.92" xlink:href="#_Безымянный_градиент_23"/>
    <linearGradient id="_Безымянный_градиент_23-10" data-name="Безымянный градиент 23" x1="164.01" y1="521.95" x2="164.01" y2="352.77" xlink:href="#_Безымянный_градиент_23"/>
    <linearGradient id="_Безымянный_градиент_23-11" data-name="Безымянный градиент 23" x1="146.55" y1="516.48" x2="146.55" y2="328.73" xlink:href="#_Безымянный_градиент_23"/>
  </defs>
  <path class="cls-3" d="M451.38,506.88l-2.36,33.85-23.75,31.88-.72.98-.85,1.15-.46.61-13.89,18.64-1.51,1.76-.51.59-.39.46-.74.86-22.03,25.67h-.01l-1.45.51-.23.08-2.04.7,8.14-14.06,8.36-19.38.73-1.98,2.65-7.22.31-.84,1.27-3.44.07-.18,2.8-7.61.74-3.56,1.55-7.4,2.24-10.71c.28.08.55.14.84.18.33.06.67.09,1,.11.24.02.5.03.74.03.22-.07.45-.1.69-.1h.91c.37-.03.72-.1,1.09-.17,7.05-1.46,14.42-8.5,20.73-16.46.37-.44.71-.89,1.05-1.34.4-.51.79-1.02,1.17-1.54,6.77-9.09,12.02-18.63,13.87-22.09Z"/>
  <path class="cls-11" d="M456.07,439.64l-.54,7.78c-1.8-4.16-3.44-6.34-3.44-6.34-2.96-4.4-5.94-6.76-8.8-7.72-.17-.06-.33-.11-.5-.16,0,0-.24-.07-.49-.13-3.43-.77-7.87,3.3-7.87,3.3-5.31,4.87-6.24,10.85-7.23,10.66-.61-.13-.99-2.51-.22-11.84-6.44-17.59-12.88-35.17-19.32-52.76l-3.99-9.18-7.25-17.92-5.75-18.83-3.29-13.91-3.92-14.71-.77-1.54-.18-.36-.2-.4-7.57-6.36-8.35-4.98-6.26-2.89-3.69-.69-1.08-.21s-.09,0-.12-.02l-.1-.02,2.64-.24,5.35-.48,6.6-.59,6.7-.6,18.31-1.64,38.43,43.22,7.47,35.74,2.57,12.25,12.88,61.55h-.01Z"/>
  <path class="cls-5" d="M441.38,413.97c.41,1.82.69,3.11.83,3.79-.17-.6-.48-1.64-.91-3.06-.01-.02-.02-.05-.02-.07-2.78-8.96-10.63-32.94-20.76-57.26-7.11-17.04-15.32-34.25-23.72-46.57-.02-.02-.03-.06-.07-.08-.3-.46-.6-.9-.91-1.33-3.05-4.33-5.82-7.47-8.27-9.76,0,0-.02-.03-.04-.05-3.59-3.35-6.47-4.9-8.49-5.79-5.62-2.54-10.29-2.75-19.45-3.04-.99-.03-2.03-.06-3.13-.09-.11-.01-.22-.01-.33-.01-3.22-.11-6.93-.25-11.31-.49-7.93-.63-14.5-1.11-18.52-1.62,8.4-.12,18.76-.25,22.42-.25,10.37-.09,15.89-.19,21.04.81,1.62.32,3.21.74,4.91,1.31h.03c.34.12,3.46,1.24,7.25,3.3,1.18.64,2.43,1.38,3.68,2.19,3.41,2.21,6.65,5.13,9.7,8.53,14.23,15.78,24.48,41.75,28.79,53.25,5.24,13.91,9.13,26.04,11.92,35.69.01.02.01.05.02.07,2.7,9.32,4.4,16.35,5.35,20.52Z"/>
  <path class="cls-5" d="M442.36,418.34s-.07-.23-.13-.52c.09.3.13.48.13.52Z"/>
  <path class="cls-8" d="M357.87,272.54l7.06-7.54,8.07-11.22,9.62-18.4,5.95-20.57,17.43,9.44,9.88,8.13,11.84,14.12,10.03,17.13,12.95,27.1,10.55,25.1,10.08,24.8,4.02,9.9,5.68,14.87,4.71,14.07,3.48,9.94,3.46,15.14,2.79,14.48,1.53,11.27.62,7.55.39,10.42-.03,11.5-.52,11.5-1.49,13.32-2.11,12.19-1.97,11.32-6.52,28.35-3.36,8.91-5.85,12.59-7.33,12.82-6.48,8.58,3.32-11.03,3.83-13.06,3.62-14.99,2.51-11.96-3.11,4.97-5.81,10.56-9.54,14.12-10.99,12.34-4.94,4.06-4.11,2.29,5.63-8.35,9.83-18.22,5.5-12.87,4.3-18.19,2.45-15.4.68-9.13-.12-12.48-.84-14.25-.97-15.35-1.6-12.91-2.23-24.24-4.8-21.76-5.15-25.6-6.5-26.31-4.51-15.33-6.05-22.32-9.13-21.83-6.75-11.48-7.52-6.98-12.05-3.79-10.78,1.35-11.42,3.21-8.87,4.24-8.35,3.89Z"/>
  <path class="cls-7" d="M73.74,417.49c-2.29-.88-4.9-4.05-5.5-14.87l-1.81-17.54,1.81-18.07,11.45-19.58,13.26-19.15,10.76-16.9,7.63-15.4,16.81-28.03,13.99-19.26,25.58-27.39,18.49-16.25,26.21-18.61,29.97-14.87,21.41-7.48,23.49-5.24,19.63-1.71,24.75,1.07,19.73,3.96,16.08,6.53,12.95,10.69,6.63,13.38,1.51,7.7-.5,10.59-2.83,16.37-7.18,19.85-12.24,16.39c-1.45,2.4-3.94,5.88-7.94,8.91-2.74,2.08-5.43,3.35-16.4,6.92-8.82,2.87-13.24,4.29-13.89,3.89-8.9-5.44,29.67-63.69,16.19-80.76-13.28-16.84-79.92,2.74-134.55,45.2-88.25,68.56-118.51,176.2-135.48,169.67Z"/>
  <path class="cls-5" d="M399.11,335.73c-3.17-12.15-8.75-21.16-14.9-27.78-.51-.55-1.02-1.08-1.53-1.59-.11-.11-.23-.23-.34-.34-10.84-10.69-22.82-14.46-26.24-15.36-.33-.09-.59-.15-.74-.19-.05,0-.09,0-.12-.02l-.1-.02c.37-.25.61-.5.86-.75.58.16,1.18.33,1.79.51.58.18,1.18.38,1.79.58,4.24,1.41,9.07,3.53,13.97,6.9,18.15,12.23,23.99,31.58,25.58,38.06Z"/>
  <path class="cls-10" d="M465.39,490.41l-.61,13.54-.09,1.95-1.89,10.42-.03.22-.63,3.45v.09l-.83,4.5-1.49,5.28-.02.08-2.69,9.55-.02.06-1.01,3.57-2.84,5.44-.03.07-4.79,9.18-.17.31-4.16,7.97-.66.97-.03.04-6.83,10.04-6.88,8.27-.87,1.05-2.48,2.97-1.89,2.26-.46.43-.02.02-.03.03-3.19,3.01-2.01,1.91-5.43,5.14-.41.33-.91.74-14.55,11.77-11,7.92-4.38,1.65.64-.79,22.31-27.33.74-.91.14-.18.49-.59,2.96-3.64,3.82-4.27c.07-.07.12-.14.17-.2l3.8-6.02c.04-.08.1-.15.14-.23l1.78-2.81,2.37-4.01s.05-.09.08-.14l.3-.5,1.63-2.79.65-1.09,1.87-3.17,4.54-11.98,4.39-16.86,1.48-6.63c.4-.51.79-1.02,1.17-1.54,6.77-9.09,12.02-18.63,13.87-22.09.46-.86.7-1.35.7-1.35,12.57-28.36,7.6-48.53,3.44-58.11-1.8-4.16-3.44-6.34-3.44-6.34-2.96-4.4-5.94-6.76-8.8-7.72-.17-.06-.33-.11-.5-.16l-.42-6.67-1.05-11.83-.04-.47-2.05-7.55-3.17-13.23s-.01-.05-.02-.07l-11.77-31.49-11.83-28.53-17.12-28.93-9.7-8.53-2.96-1.49-7.96-3.99h-.03s-11.5-.73-11.5-.73l-.54-.03h-13.66l-22.66-1.12-10.38-1.39-1.47-.21-.72-.09,13.79-3.6.33-.09,5.79-1.51,4.71-1.19h.01l8.56-2.17,1.34-.34.93-.48,7.94-4.02,3.27-1.66c.2-.1.4-.2.61-.32l1.31-.66c.23-.12.47-.24.7-.35.23-.11.48-.23.72-.35l11.39-5.72,12.97-4.13,4.71.14h.03l6.88.18,3.52.1,2.8,1.89,8.03,5.42.03.02,1.68,1.13,1.01,1.38.02.02.14.17.03.06,6.57,8.88s.01.02.02.03l8.55,22.73v.05l4.52,17.49.71,2.04,1.42,4.13.03.11.77,2.19,2.8,8.08,3.33,14.73.05.21,3.01,13.31,2.63,11.06.03.14,3.19,13.34,2.21,12.63v.09l2.32,13.17,1.54,10.09v.08l.96,6.15,1.81,16.9,1.68,26.17.07,3.85v.03l.21,11.96h.01Z"/>
  <path class="cls-1" d="M69.7,406.68l5.8,12.41,3.65,104.9-.61,3.12,1.81,13.51,3.38,10.94,4.01,8.03,1.19,2.49-5.4-5.03-6.72-9.09-5.61-11.02-5.25-15.08-3.24-17.62-1.53-21.32.52-21.86,1.68-20.61,2.92-18.2,3.41-15.57Z"/>
  <path class="cls-9" d="M360.11,220.54l-1.94,16.89-6.2,21.27s-.02.05-.05.06c-1.89,2.83-3.92,5.46-5.96,7.86-.47.54-.92,1.06-1.38,1.57-3.01,3.37-6.01,6.25-8.63,8.55-2.39,2.1-4.75,3.98-7.03,5.63-.38.27-.76.55-1.12.81-.08.06-.16.1-.23.16-3.8,1.07-7.06,1.98-9.65,2.68-1.68.46-2.78.76-3.52.93-.85.22-1.24.27-1.49.24-.07,0-.13-.02-.19-.06,0,0-.05-.03-.08-.06-.14-.09-.26-.22-.34-.35-.01-.02-.03-.06-.04-.08-1.92-3.62,9.76-20.09,7.33-31.92-.24-1.17-.62-2.31-1.17-3.38-1.82-3.56-5.08-5.64-8.95-7.11-1.11-.41-2.29-.77-3.5-1.1-2-.56-4.1-1.02-6.21-1.49-1.71-.38-9.88-2.06-20.29-.86-.43.05-.87.1-1.3.16-3.01.41-6.17,1.06-9.42,2.05-.51.16-1.03.32-1.54.5-2.52.85-5.09,1.91-7.63,3.23,0,0,0,0-.02.02-1.15.59-2.3,1.25-3.44,1.96-1.4.86-2.78,1.82-4.14,2.86-1.46,1.1-2.8,2.25-4.06,3.46-7.12,6.73-11.61,15.11-18.61,28.11-4.76,8.86-7.44,15.72-9.71,21.5-4.01,10.18-16.89,42.9-23.85,58.13-4.56,9.99-9.21,18.21-14.56,26.4-1.97,3.01-4.03,6.03-6.22,9.11-4.19,5.92-8.84,12.14-14.17,19.26-5.41,7.23-10.97,14.67-17.21,22.31-.47.57-.93,1.13-1.4,1.7-.39.47-.78.94-1.18,1.41-4.23,5.07-8.78,10.23-13.82,15.46-3.75,3.91-7.76,7.87-12.1,11.87v.02c-.2.17-.39.34-.58.51-.13.12-.28.26-.42.39-.38.35-.78.71-1.17,1.06-.02.02-.03.03-.04.04-2.69,2.42-4.7,4.14-6.37,5.65-1.81,1.63-3.22,3-4.71,4.77-.51.61-1.02,1.27-1.57,2-.69.92-1.34,1.87-1.95,2.82l-.03.03-.06.09c-1.35,2.1-2.55,4.27-3.59,6.47-.39.82-.76,1.65-1.1,2.48-4.85,11.64-5.8,24.32-5.12,35.77.02.59.07,1.17.11,1.75.04.64.09,1.27.14,1.9.29,3.17.68,6.23,1.12,9.12,0,0,0,0,.01.02,0,.07.01.12.02.18-.68-1.34-1.34-2.68-2.01-4.01-.13-.27-.28-.56-.43-.85h-.01s-.02-.07-.04-.09c-.56-1.12-1.11-2.22-1.67-3.32,0-.02-.01-.03-.02-.06-.77-1.52-1.53-3.05-2.3-4.57-.01-.01-.01-.02-.02-.05h-.01l-.98-1.99s-.03-.06-.04-.09l-3.13-6.3v-.02l-.84-1.67-1.43-2.88v-.02l-2.43-10.74-3.98-17.26-2.23-21.25,1.39-23.55,4.95-24.82.64-3.25h.01l.14-.79.22-1.09,8.23-28.67,12.96-30.38,12.84-25.25s.04-.07.07-.1l10.35-14.01,13.92-16.97,11.14-11.69,37.08-33.74,14.2-11.82,18.38-16.15,16.71-12.79,19.11-11.34,13.52-5.72,13.58-4.12,16.29-3.32,22.18-.85,15.88,2.2,10.34,3.69,8.14,5.46,5.58,6.1,4.03,13.37h-.01Z"/>
  <path class="cls-5" d="M426.89,401.62c-7.22-2.21-13.67-9.52-19.25-19.19-16.29-28.19-25.34-76.41-25.34-76.41.01,0,.02-.01.03-.01.06-.01.11-.02.17-.02.42-.04.83.09,1.14.41.37.38.49.99.49,1.11.01.09.03.24.08.43.97,4.78,10.75,38.99,13.43,47.63,2.32,7.61,6.83,21.21,17.91,34.69,4.26,5.12,8.4,8.86,11.34,11.35Z"/>
  <path class="cls-5" d="M442.62,415.48c-.04.96-.09,1.91-.14,2.88-.09-2.09-.18-4.13-.26-6.13-.81-20.07-1.24-35.43-1.57-45.54-.01-.29-.02-.57-.03-.84-.47-13.54-.62-23.27-3.02-36.97-1.21-7.12-2.67-15.23-6.08-25.22-5.73-16.97-11.95-35.07-26.93-40.69-8.65-3.24-17.05-1.11-24,.63-2.01.51-3.54,1.08-5.5,1.77-4.38,1.55-8.23,3.24-11.39,4.77-.24.12-.49.24-.72.35-.94.47-1.82.92-2.62,1.33-1.22.65-2.28,1.24-3.15,1.73-1.14.66-1.98,1.16-2.48,1.46-1.32.77-3.15,1.6-5.57,2.49-.71.27-1.47.53-2.28.82-6.61,2.26-16.65,5.05-31,8.86-4.71,1.24-9.88,2.6-15.56,4.1-3.43.9-8.36,2.2-12.81,3.35l-.17.04-.32.08c-5.45,1.4-10.05,2.54-10.08,2.41,0-.28,17.76-5.44,24.78-7.47,4.89-1.41,7.33-2.13,9.74-2.8.27-.08.53-.15.8-.22.05-.02.1-.03.15-.04.58-.16,1.13-.32,1.69-.47.09-.02.18-.05.28-.08,5.45-1.49,9.46-2.48,12.64-3.23.68-.16,1.32-.31,1.93-.45,5.8-1.33,8.76-1.9,14.26-3.81,2.95-1.02,6.83-2.71,13.08-5.64.04-.02.08-.03.11-.06.67-.31,1.37-.64,2.09-.98.17-.08.34-.17.52-.25.32-.16.65-.31.99-.48.01.01.01,0,.01,0,1.58-.75,3.28-1.57,5.13-2.46.17-.08.33-.16.49-.24.98-.47,1.89-.91,2.76-1.34,3.39-1.64,6.09-2.97,8.58-4.03.79-.33,1.57-.64,2.32-.92,2.49-.93,4.9-1.59,7.77-2.08,3.65-.63,10.47-1.75,16.93.12,2.36.71,10.47,3.38,19.55,19.44,0,.01.01.02.02.03,2.13,3.79,4.32,8.32,6.49,13.73,4.19,10.23,6.74,19.76,8.39,28.46.43,2.24.8,4.43,1.11,6.55.05.3.1.59.14.89.2,1.45.39,2.87.57,4.27.41,3.33.72,6.49.99,9.5.9,9.83,1.67,21.59,1.93,35,.23,11.33.12,23.85-.57,37.39Z"/>
  <path class="cls-5" d="M387.05,214.04c6.34,2.24,15.83,6.37,25.7,13.98,7.67,5.99,19.73,17.35,45.69,78.01,8.53,19.98,13.4,33.2,19.38,49.55,10.6,28.71,14.62,42.19,17.3,58.16.98,6.12,2.43,15.85,3.04,27.96,1.34,27.33-2.19,47.92-4.88,63.15-2.8,16.22-4.51,25.71-9.63,38.44-9.14,22.59-21.44,35.95-21.32,36.07.12,0,11.08-14.11,19.01-34.19.98-2.62,4.63-11.85,8.77-32.08,4.39-21.21,8.77-42.32,7.55-69.02-.73-16.72-3.29-28.84-5.97-41.19-1.96-8.99-7.43-33.2-38.86-104.09-17.91-40.44-25.58-54.17-40.69-67.52-9.38-8.61-18.64-13.98-25.09-17.22Z"/>
  <path class="cls-5" d="M462.34,579.34c9.51-26.71,20.1-66.52,21.32-115.7,1.46-60.16-11.81-108.21-22.42-137.41,9.99,30.95,21.44,78.5,20.22,137.16-.98,48.17-10.24,87.86-19.13,115.95h.01Z"/>
  <path class="cls-5" d="M487.44,382.4s44.22,99.97,6.94,141.53c4.26-6.73,10.12-17.97,12.55-32.83,1.59-10.24.86-17.72-.24-29.82-1.71-17.47-5.12-30.58-8.65-43.43-2.19-8.11-5.36-18.97-9.99-31.7-.37-1.25-.49-2.49-.61-3.74h.01Z"/>
  <path class="cls-5" d="M465.6,493.72v.04c-.02,1-.06,2-.09,2.99v.02c-.41,10.99-1.68,21.52-4.51,32.4-4.66,17.65-12.67,32.96-22.18,46.08-.17.24-.35.49-.53.73-.35.49-.71.97-1.05,1.44,0,0-.01,0-.01.01-2.34,3.1-4.75,6.07-7.22,8.92-.35.4-.69.8-1.04,1.18-1.23,1.4-2.49,2.77-3.74,4.11,0,.01-.01.01-.01.01-1.34,1.42-2.69,2.81-4.04,4.16-.01,0-.01.01-.01.01-2.43,2.41-4.89,4.72-7.34,6.93h-.01c-.38.34-.76.68-1.13,1.01-13.08,11.56-26.14,20.04-35.96,25.73.33-.48,11.09-16.02,20.66-41.02.99-2.58,1.95-5.26,2.9-8.02h.01l.62-1.86h.01l.2-.63c1.35-4.12,2.65-8.43,3.84-12.91,1.44-5.4,2.73-11.07,3.81-16.95.18.06.36.1.53.14.28.08.55.14.84.18.33.06.67.09,1,.11-.02.14-.04.29-.08.42h-.01c-.14.77-.31,1.54-.48,2.3-1.64,7.59-3.64,14.45-5.49,20.59-.23.8-.49,1.62-.74,2.46-.17.58-.36,1.17-.54,1.76-.81,2.59-1.73,5.32-2.75,8.2-.21.56-.41,1.13-.62,1.71-.37,1-.74,2.01-1.14,3.05-.18.45-.36.92-.54,1.38-3.92,10.07-9.16,21.48-16.24,33.53-.13.24-.27.47-.41.71.71-.43,1.41-.85,2.1-1.3h.01c10.63-6.6,19.72-13.47,27.5-20.35.27-.22.52-.45.78-.68,1.81-1.61,3.54-3.22,5.21-4.83.45-.44.91-.89,1.37-1.34h.02c2.29-2.26,4.45-4.53,6.48-6.74h.01s0-.02.01-.03c.43-.47.85-.94,1.27-1.41.61-.68,1.21-1.36,1.8-2.05.29-.34.59-.68.87-1.02,13.63-16.07,20.73-30.63,24.44-39.61,9.95-24.17,12.34-48.41,10.76-75.08-.02-.56-.07-1.14-.1-1.71v-.05c-.01-.23-.03-.46-.04-.69-1.53-22.62-5.77-47.04-10.61-74.62-4.16-23.75-9.19-43.93-13.65-59.49,0,0,0,0-.01-.02v-.03c-1.14-3.97-2.24-7.62-3.27-10.96.09-.18.21-.4.34-.63.07-.11.13-.23.21-.34.18-.31.38-.61.54-.9.11.36.23.74.36,1.13,0,.02,0,.03.01.06,3,9.79,6.98,23.58,10.97,40.24,5.47,23.34,13.39,56.3,15.22,95.23.64,13.18,1.21,25.01.94,36.31h-.01Z"/>
  <path class="cls-5" d="M436.35,530.51c.4-.51.79-1.02,1.17-1.54-.58,2.93-1.2,5.89-1.86,8.86-2.72,12.23-5.62,22.31-11.16,32.54-.21.39-.42.77-.64,1.16-.39.72-.81,1.44-1.24,2.16-.12.22-.26.43-.39.65-.19.31-.38.63-.57.93-2.83,4.56-5.72,8.38-8.33,11.46-.05.07-.1.14-.17.2-1.38,1.64-2.68,3.06-3.82,4.27,2.31-2.78,5-6.27,7.78-10.49.04-.08.1-.15.14-.23.59-.9,1.19-1.83,1.78-2.81.8-1.27,1.59-2.62,2.37-4.01.03-.05.05-.09.08-.14.1-.17.19-.34.29-.51.53-.97,1.07-1.94,1.59-2.97.2-.39.41-.8.6-1.19.5-.98.98-1.97,1.45-2.99,3.98-8.51,6.77-17.23,9.87-34.01.37-.44.71-.89,1.05-1.34Z"/>
  <path class="cls-5" d="M443.28,433.36c-.17-.06-.33-.11-.5-.16-.17-.05-.32-.09-.49-.13-.34-7.76-.78-14.12-1.01-18.44-.01-.14-.01-.27-.02-.4.04-.09.09-.17.12-.26.29-.59.57-1.17.84-1.75.13-.27.26-.53.38-.8,0,.73.01,1.91.02,3.36v.63s.01.05,0,.07c.01,1.24.03,3.92.06,6.19.03,3.72.3,7.96.6,11.69Z"/>
  <path class="cls-5" d="M437.13,577.48s17.42-6.49,37.64-47.92l.24-1.25c-5.24,9.36-9.99,16.85-13.77,22.59-5.97,8.86-9.26,12.73-12.55,15.97-4.02,3.99-7.67,6.86-10.36,8.74-.37.63-.86,1.25-1.22,1.88h.01Z"/>
  <path class="cls-5" d="M472.58,434.32c-.24,7.86-.73,16.35-1.47,25.21-1.34,13.73-3.29,26.46-5.73,37.82,0-1,.12-1.88.12-2.87l7.06-60.16h.01Z"/>
  <path class="cls-5" d="M365.08,269.15c4.4-5.56,10.25-11.99,17.81-18.29,10.3-8.59,20.34-14.08,28.17-17.6-2.19,1-5.36,2.49-9.01,4.74-3.78,2.24-8.41,5.37-18.77,14.86-4.14,3.74-9.5,8.86-15.59,14.98-.43.27-.91.56-1.47.82-.4.19-.79.36-1.14.5h0Z"/>
  <path class="cls-2" d="M322.57,261.76l-.39,2.57-.45,2.88-.67,4.36-1.67,4.95c-1.78,3.22-3.54,6.42-5.32,9.62-.13.24-.27.49-.4.73l-.95.27-1.03.3-7.72,2.23-16.47,4.94-.17.04-.32.08-10.08,2.41-5.88-4-5.09-3.47-11.79-6.22-11.91-3.96-7.78-1.65-.34-.07-.96-.21,6.65-11.44,10.06-10.59,1.58-1.72,4.66-5.11,4.31-4.7,11.04-6.48,5.84-2.47,14.62-2.21,12.8,1.46,8.71,4.21,6.31,8.32,2.29,6.38.16,2.45.13,2.25c.01.08.01.16.02.23l.22,3.63h-.01Z"/>
  <path class="cls-5" d="M376.38,263.53c1.6-1.21,3.83-2.79,6.61-4.47,18.88-11.38,38.02-11.71,38.06-11.44.03.18-8.66.86-21.32,5.24-8.65,2.99-15.96,6.62-21.56,9.99-.04.09-.27.52-.79.72-.48.17-.89.01-.99-.02h-.01Z"/>
  <path class="cls-5" d="M359.12,271.93c5.36-4.62,12.45-12.21,18.92-24.7,0,0,.19-.36.37-.72,3.37-6.63,19.91-41.28,4.51-65.19-4.38-6.73-11.57-13.1-27.29-18.6-44.47-15.48-91.37-.75-114.4,8.36-16.2,6.86-28.62,14.23-36.92,19.47-9.87,6.24-54.45,35.82-88.69,94.73-7.92,13.6-13.28,25.46-16.44,32.95h2.43c12.06-25.83,46.53-92.6,112.57-131.67,35.35-20.85,66.79-26.22,78.6-27.83,0,0,28.27-3.87,58.72,4.24,8.77,2.37,16.81,5.74,23.76,12.6,1.34,1.25,5.24,5.24,8.04,10.61,11.7,22.41-2.77,51.93-6.22,58.91-3.5,7.06-9.82,17.63-21.04,28.1.57-.17,1.19-.4,1.84-.68.45-.19.87-.4,1.25-.6h-.01Z"/>
  <path class="cls-4" d="M103.06,482.27l-2.6,11.28-1.35,13.9v14.55l1.98,16.8,1.98,11.34,3.11,10.69,3.24,9.2,4.23,10.2,6.11,10.87,3.62,6.27-9.73-9.09-9-11.48-9.53-20.29-4.29-16.7-1.15-10.11v-10.07l.48-8.1,1.41-8.01,2.26-7.96,4.45-8.02,4.79-5.29Z"/>
  <path class="cls-12" d="M101.87,482.27l5.73-6.05,6.04-6.05.92.65-.21,4.33-.37,9.9.27,17.18,1.57,16.1,3.96,22.78,3.92,15.78,7.36,19.85,7.94,14.61,8.72,11.55,6.47,7.97.62,1.23-3.18-.97-10.08-5.67-9.14-8.06-10.24-10.28-5.9-6.9-4.96-5.28-5.15-14.08-4.3-15.78-2.4-16.79-.52-10.81.68-15.73,2.24-19.46Z"/>
  <path class="cls-5" d="M276.94,297.14c-1.8-1.32-3.75-2.67-5.88-4-2.79-1.78-5.86-3.54-9.24-5.2-10.58-5.23-20.41-7.74-28.02-8.99-.2-.03-.41-.07-.61-.1.32-.36.63-.72.95-1.08.35-.39.69-.78,1.03-1.17,0,0,.03,0,.1.01,1.61.18,22.02,2.88,41.67,20.53Z"/>
  <path class="cls-5" d="M241.12,267.96c.12-.4.26-.8.38-1.21,4.42,1.05,12.58,3.62,20.67,10.34,8.75,7.28,12.95,15.71,14.76,20.04-2.49-3.98-5.91-8.63-10.58-13.23-9.17-9.02-18.86-13.6-25.23-15.95Z"/>
  <path class="cls-5" d="M247.07,258.71c3.76,1.22,10.79,4.05,17.2,10.69,9.02,9.34,11.07,20.25,11.62,24.18-1.14-3.94-3.03-8.81-6.26-13.84-7.57-11.82-17.95-17.46-23.18-19.83.21-.41.42-.81.62-1.22h0Z"/>
  <path class="cls-5" d="M264.94,242.22c9.86,5.23,21.26,13.57,24.08,26.28,2.83,12.73-4.01,24.99-3.72,25.08.28.09,7.29-11.49,5.06-24.31-3.04-17.45-21.29-26.25-24.69-27.83-.24.26-.49.52-.73.78Z"/>
  <path class="cls-5" d="M274.41,237.43c3.48,1.99,17.07,10.31,21.41,26.94,3.51,13.44-.83,25.34-1.33,25.3-.59-.06,4.4-16.73-2.72-32.33-4.32-9.46-11.76-15.59-18.3-19.59.31-.1.62-.22.94-.32Z"/>
  <path class="cls-5" d="M301.72,289.67c13.53-13.89,18.68-30.82,13.16-39.96-5.16-8.55-20.92-12.38-26.66-13.76-2.54-.61-4.71-.99-6.26-1.22-.44.2-.89.42-1.33.63,1.52.27,3.72.71,6.34,1.38,11.48,2.92,24.64,6.26,28.19,15.9,1.41,3.83.92,7.44.5,10.61-.72,5.3-2.71,8.95-5.72,14.34-1.77,3.16-4.42,7.42-8.22,12.07h0Z"/>
  <path class="cls-5" d="M314.37,286.06c-.27.34-.5.6-.68.81-.26.11-.51.23-.77.33-.54.24-1.09.48-1.63.71.13-.16.28-.31.4-.47.21-.24.41-.47.61-.71.03-.04.08-.08.1-.12,5.02-6.03,8.07-12.82,9.34-19.39.19-.96.33-1.92.45-2.88.24-2.12.29-4.2.17-6.2-.01-.07-.01-.15-.02-.23-.06-.77-.13-1.55-.26-2.3-.64-4.36-2.21-8.27-4.64-11.34-7.58-9.61-23.61-11.09-33.94-9.28-.13.02-.28.05-.41.07-.49.09-.88.17-1.13.22-.29.06-.57.11-.84.18-2.31.51-4.51,1.19-6.61,2.02-.3.13-.6.24-.89.36-2.61,1.09-5.04,2.4-7.34,3.88-.34.22-.69.44-1.02.67-1.99,1.34-3.86,2.8-5.65,4.33,0,0,0,0-.02.02-2.41,2.09-4.65,4.32-6.74,6.62-1.72,1.85-3.33,3.75-4.85,5.64-.31.38-.61.74-.91,1.12-.01.01-.02.03-.04.05-1.43,1.8-3.18,4.05-5.11,6.69-.26.35-.53.73-.8,1.1-1.83,2.55-3.82,5.44-5.85,8.64-.27.41-.53.82-.79,1.23-.23.36-.47.74-.69,1.11-.33.52-.65,1.06-.99,1.6-15,24.8-17.41,41.64-27.29,65.37-7.37,17.69-15.11,30.1-23.65,43.05-1.08,1.65-2.18,3.3-3.29,4.97-.96,1.45-1.92,2.88-2.9,4.3-10.87,15.92-22.37,30.28-32.07,41.58-.48.55-.95,1.09-1.41,1.63-.42.48-.83.94-1.22,1.41-5.53,6.32-10.34,11.53-13.92,15.33-4.27,4.52-6.84,7.03-6.84,7.03-1.83,1.81-3.53,3.43-5.1,4.94l-.63.59-.38.36c-.4.39-.79.75-1.17,1.11-.02.02-.03.03-.04.04-2.39,2.26-4.46,4.26-6.33,6.17-1.27,1.29-2.43,2.55-3.51,3.82l-.08.08-.37.44c-.31.36-.62.75-.92,1.13,0,.01-.01.01-.01.02-2.14,2.72-4.02,5.66-5.85,9.36-1.81,3.65-3.22,7.34-4.32,11.02,0,.02-.01.03-.01.06v.05s-.02.07-.03.11c-.08.24-.14.48-.21.72-2.66,9.44-3.24,18.76-2.84,27.12.03.59.07,1.17.11,1.75.03.65.08,1.27.14,1.9.26,3.24.66,6.3,1.12,9.12,0,0,0,0,.01.02,0,.07.01.12.02.18-.02-.09-.04-.18-.07-.28-2.59-10.44-4.86-26.57.76-43.67,3.14-9.56,7.64-16.05,15.84-25.32,4.02-4.55,8.93-9.76,15-16.33,6.81-7.37,12.67-13.71,17.75-19.26.9-.98,1.78-1.94,2.64-2.88,4.82-5.29,8.9-9.82,12.41-13.83,1.95-2.23,3.73-4.31,5.37-6.27,2.43-2.92,4.55-5.6,6.45-8.14,2.79-3.74,5.42-7.44,7.87-11.06,2.01-2.95,3.9-5.85,5.68-8.67,12.39-19.54,19.75-35.88,23.25-44.15,4.79-11.28,3.11-9.28,9.4-24.82,13.26-32.75,20.14-49.45,34.53-64.76.22-.24.44-.48.68-.72,7.53-7.97,18.74-19.14,36.01-22.25,5.75-1.02,21.3-3.81,31.53,6.21,5.47,5.36,7.27,12.26,7.92,16.74.23,1.61.32,2.91.37,3.72.85,13.4-6.13,23.12-8.86,26.43h-.01Z"/>
  <path class="cls-5" d="M329.99,276.14c2.61-3.13,8.01-10.48,9.27-21.17,1.22-10.39-1.28-25.32-10.94-31.9-5.61-3.81-8.47-1.3-28.01-3.9-13.39-1.79-14.68-3.31-21-3.78-18.34-1.34-33.35,9.68-39.9,14.49-32.56,23.9-24.87,69.4-59.35,147.22-11.79,26.62-24.99,49.05-26.34,48.4-2.03-.98,32.29-49.95,50.54-125.95,6.03-25.08,9.04-48.75,28.27-66.9,11.07-10.44,31.46-22.97,46.37-19.68,1.44.32,6.91,1.68,15.18,3.28,7.2,1.39,11.64,2.23,17.54,2.71,10.19.83,10.41-.58,14.06.57,9.18,2.9,14.77,14.04,16.43,22.11,3.86,18.8-11.04,33.47-12.11,34.49h-.01Z"/>
  <path class="cls-5" d="M89.82,545.35c.53-.24-12.25-19.26-17.75-50.08-8.23-46.09,5.75-85.35,15.03-111.42,3.48-9.75,8.83-24.6,19.04-42.67,22.05-38.97,50.35-62.87,106.06-109.07,20.44-16.96,25.18-19.8,27.98-21.4,38.97-22.22,98.64-29.38,114.16-3.56,11.04,18.34-3.62,47.64-11.61,61.32.63-.09,1.27-.18,1.9-.28,17.64-19.5,22.67-44.32,13.34-59.9-8.51-14.18-27.28-17.98-34.25-19.39-11.01-2.23-19.49-.94-31.32.85-20.32,3.08-35.21,9.73-40.99,12.5-16.65,7.97-27.56,17.16-36.91,25.16-45.86,39.2-68.77,58.8-72.05,62.47-13.07,14.67-34.55,39.19-51.59,77.45-12.09,27.18-17.21,50.65-19.53,64.04-2.49,14.41-4.95,28.62-3.58,46.81,2.92,38.82,21.41,67.46,22.06,67.18h.01Z"/>
  <path class="cls-5" d="M140.77,366.53c-19.12,19.99-32.06,38.98-40.49,53.12-14.1,23.65-24.43,41.42-25.72,65.99-1.39,26.55,8.54,46.81,8.74,46.76.22-.06-9.78-21.61-6.86-49.32,2.26-21.59,11.08-37.46,18.91-51.55,4.19-7.54,10.12-15.98,21.82-32.53,9.63-13.62,17.83-24.74,23.59-32.46h.01Z"/>
  <path class="cls-5" d="M170.85,375.88s-118.73,110.12-83.08,166c-2.12-7.11-4.85-19.16-3.52-33.77,2.2-24.25,14.32-41.76,32.01-67.33,9.23-13.33,17.44-23.06,24.23-31.1,11.9-14.09,22.67-25.3,30.82-33.37l-.47-.43h0Z"/>
  <path class="cls-5" d="M362.59,172.33c-5.99-2.76-14.96-6.2-26.18-7.95-5.72-.89-28.99-3.98-63.1,10.12-12.14,5.02-19.45,9.66-50.84,31.71-40.13,28.2-60.19,42.29-67.47,48.83-19.85,17.82-31.84,32.95-55.82,63.21-26.04,32.85-30.63,43.61-32.48,55.2-3.22,20.26,2.72,37.89,7.71,48.8.36-1.05.71-2.1,1.08-3.15-3.88-7.8-9.69-22.43-7.53-40.09,1.73-14.17,7.82-23.76,18.8-40.65,5.65-8.69,11.76-17.01,32.49-40.95,20.52-23.69,30.77-35.55,38.24-42.35,9.42-8.58,12.77-10.25,49.27-35.13,48.65-33.16,49.14-34.57,60.2-39.61,35.61-16.23,59.78-14.94,65.13-14.56,12.95.91,23.44,3.97,30.51,6.56h0Z"/>
  <path class="cls-6" d="M189.22,605.23l-2.57-.91-6.21-2.89-10.6-8.24-3.05-2.79-.94-.86-.71-.64-.58-.54-2.44-2.23-6.28-6.72-.44-.46c-.07-.08-.13-.15-.19-.23l-1.28-3.48-1.92-5.27-.27-.73-.67-1.81-.7-1.91-.93-7.87v-.02l-.62-5.22-.21-1.82-.41-3.43-.59-5.01-1.55-17.72-.38-4.31v-10.97l.17-3.48v-.03l.2-4.15v-.06l.33-6.93,1.28-10.79c.02-.28.04-.49.07-.61.01-.08.01-.11.01-.11-1.39-2.25-15.21-25.37-5.52-41.47,1.08-1.8,2.55-3.67,4.61-5.47,2.61,17.6,5.22,35.19,7.84,52.79l.16,7.92.28,3.38.36,4.21.2,2.37,1.1,9.52.92,7.35.04.41.44,3.53,1.99,8.08,1.86,10,.61,3.27.93,3.68.6,2.4.58,2.26.43,1.39.11.4.61,1.96,2.35,8.34,3.6,7.76,3.81,8.35,2.88,6.15,5.95,8.08,4.75,5.61Z"/>
  <path class="cls-13" d="M179.13,629.27l-7.03-10.56-7.03-12.63-5.15-11.19-8.28-24.1-4.94-29.67-1.19-31.32,2.23-26.81c-1.84-13.82-3.68-27.65-5.52-41.47l-24.24,25.5c-.95,1.05-1.9,2.09-2.85,3.14l-.73,3.84-.42,13.83,1.04,20.04,2.43,21.68,4.87,21.25,7.31,22.8,8.56,16.07,10.44,15.55,12.74,12.41,9.67,7.92,8.07,3.71h.02Z"/>
  <path class="cls-5" d="M68.83,405.43s-29.14,119.36,21.83,158.73c-3.38-5.27-7.76-13.59-10.03-24.6-1.32-6.44-1.59-12.18-1.47-16.8-.31-.16-.63-.33-.94-.49-.28,4.78-.17,11.76,1.89,19.85,2.14,8.44,5.56,14.81,8.18,18.89-3.71-3.86-8.69-9.7-13.22-17.69-9.43-16.62-11.05-32.14-12.54-48.07-1.59-16.98-.6-29.81.51-43.35,1.53-18.7,4.29-34.16,6.66-45.23l-.87-1.25h-.01Z"/>
  <path class="cls-5" d="M147.73,483s-11.41,92.14,34.53,149.2c0,0-75.3-25.46-68.14-161.07l1-.96c-2.33,34.84,2.93,62.04,7.63,79.21,3.53,12.88,7.44,26.72,17.61,42.26,12.3,18.8,27.24,30.11,36.96,36.27-8.44-12.18-18.78-30.17-25.69-53.7-11.57-39.35-7.43-73.29-3.9-91.22Z"/>
  <path class="cls-5" d="M91.53,504.33s-15.8,57.26,34.69,96.2c-6.58-9.53-14.27-22.97-19.69-40.22-10.55-33.62-6.61-62.99-3.45-78.03l-1.34,1.55c-2.79,13.05-6.02,36.54.34,64.51,4.75,20.87,13.1,36.63,19.5,46.64-6.4-5.92-19.51-19.66-26.74-41.94-7-21.57-4.85-40.04-3.31-48.71h0Z"/>
  <path class="cls-5" d="M110.29,573.61s28.86,37.23,43.25,38.24c-3.74-1.8-6.61-3.56-8.45-4.77-10.18-6.7-14.2-13.04-28.05-26.89-3.03-3.03-5.48-5.38-6.75-6.57h0Z"/>
  <path class="cls-5" d="M151.64,574.21s22.55,30.38,37.6,31.02c-5.13-2.61-11.15-6.22-17.36-11.23-9.44-7.61-15.94-15.69-20.24-22.01v2.21h0Z"/>
  <path class="cls-5" d="M189.22,605.23c-13.04-12.13-21.32-31.88-26.57-51.7-.01-.02-.02-.05-.02-.07-.01-.01-.01-.02-.01-.02-.62-2.33-1.19-4.66-1.73-6.98-.77-3.32-1.45-6.61-2.07-9.84v-.06c-.83-4.36-1.53-8.6-2.12-12.66-.07-.46-.13-.9-.19-1.35-.38-2.63-.7-5.18-.98-7.6-.01-.02-.01-.05-.01-.07-.83-7.05-1.31-13.14-1.6-17.64v-.02c-.06-.94-.11-1.82-.16-2.62v-.02c-.19-3.64-.22-5.73-.22-5.73h1.12c.29,4.8.66,9.41,1.08,13.83,0,.01.01.02.01.03.19,1.99.39,3.94.61,5.85,0,.02,0,.03.01.06,1.59,14.15,3.76,26.08,5.8,35.5.08.38.17.75.24,1.13,1.01,4.61,1.99,8.6,2.93,12.08,0,.01.01.01.01.02.1.41.21.81.32,1.2.12.43.23.85.36,1.26.11.41.23.82.34,1.22v.02c2.32,7.97,4.34,12.88,5.92,16.38,5.55,12.32,12.01,21.61,16.92,27.81Z"/>
  <path class="cls-5" d="M167.17,562.41c-.28-.47-.53-.93-.79-1.37v-.02c-.39-.72-.76-1.39-1.1-2.02-1.55-2.96-2.43-4.99-2.62-5.46-.01-.02-.02-.05-.02-.07-.01-.01-.01-.02-.01-.02.12-.36.24-.71.36-1.06.31.69.61,1.38.93,2.04.08.18.16.35.25.52.27.56.53,1.1.81,1.64.12.25.24.5.38.74,0,.01.01.01.01.02.1.41.21.81.32,1.2.2.53.41,1.08.61,1.63.29.74.58,1.48.89,2.24h-.01Z"/>
</svg>