<?xml version="1.0" encoding="utf-8"?>
<!-- Generator: Adobe Illustrator 25.0.1, SVG Export Plug-In . SVG Version: 6.00 Build 0)  -->
<svg version="1.1" id="Слой_1" xmlns="http://www.w3.org/2000/svg" xmlns:xlink="http://www.w3.org/1999/xlink" x="0px" y="0px"
	 viewBox="0 0 461 256" style="enable-background:new 0 0 461 256;" xml:space="preserve">
<style type="text/css">
	.st0{fill:#CCCCCC;}
	.st1{fill:#1A1A1A;}
</style>
<path class="st0" d="M233,87h-5c0-3.1,0-19.9,0-23c0,0,0-0.2,0-0.2c1.9-2.5,4.8-6.1,9-9.8c4.2-3.6,5.5-3.7,8-6
	c4.8-4.4,8.8-12.3,8-21c-0.3-3-1.6-12.4-10-18c-6.3-4.2-12.8-3.9-15-3.7c-2.2-0.1-5.9,0-10,1.7c-0.5,0.2-2.6,1.1-5,3
	c-4.8,3.7-7.5,8.6-9,12c-1.1,1.6-2.2,2.5-3,3c-0.7,0.4-1.3,0.7-2,1c-1.3,0.6-2.1,0.9-3,1c-0.9,0.1-2.9,0.4-4-1c-0.8-1-1-2.8,0-4
	c0.8-0.9,2-1.2,3-1c1,0.2,1.2,0.9,2,1c0.7,0.1,1.6-0.2,3-2c0.7-1.3,1.6-3,3-5c1.8-2.6,3.7-5.4,7-8c0.9-0.7,3.4-2.6,7-4
	c4.4-1.7,8.4-2,11-2c1.7,0,3.3,0,5,0c2.3,0.1,12.1,1,19,9c8.9,10.3,5.6,23.8,5,26c-0.6,2.4-1.9,7.4-6,12c-3.5,3.9-6.4,4.5-11,9
	c-3.4,3.3-5.7,6.7-7,9C233,73,233,80,233,87z"/>
<path class="st1" d="M457.6,230c-8-16.6-29.3-28.9-46-35c0,0,0,0,0,0c-16.7-7.7-16.2-5.5-52-20c-17.7-7.2-27.5-11.6-38.7-19.3
	c-9.9-6.8-17.3-13.7-22.3-18.7c-9.1-12.3-17.6-21.6-24-28c-11.7-11.7-17.1-15.1-21-17c-8.7-4.3-16.9-5.6-22.6-5.9c0,0-1.4,0-1.4,0
	c-5.7,0.4-13.9,1.6-22.6,5.9c-3.9,1.9-9.3,5.3-21,17c-6.4,6.4-14.9,15.7-24,28c-5,5.1-12.3,11.9-22.3,18.7
	c-11.2,7.7-21,12.1-38.7,19.3c-35.8,14.5-35.3,12.3-52,20c0,0,0,0,0,0c-16.7,6.1-38,18.4-46,35c-4.8,10-4.3,22.7,0,25
	c1.2,0.7,2.7,0.4,8-2c3-1.3,5.9-2.7,8.4-4c140.6,0,281.2,0,421.7,0c2.5,1.3,5.4,2.7,8.4,4c5.3,2.4,6.8,2.7,8,2
	C461.9,252.7,462.4,240,457.6,230z M86,211c13.5-7.9,48.8-27,144.3-75.6c95.4,48.6,130.8,67.7,144.3,75.6c5.3,3.1,16.2,9.4,38,22
	c4.2,2.4,8.4,4.6,12.6,7H35.4c4.2-2.4,8.4-4.6,12.6-7C69.8,220.4,80.7,214.1,86,211z"/>
<g>
	<image style="overflow:visible;" width="629" height="246" xlink:href="F6BD396C.png"  transform="matrix(1 0 0 1 -84 121)">
	</image>
</g>
<g>
	<image style="overflow:visible;" width="594" height="298" xlink:href="F6BD396B.png"  transform="matrix(1 0 0 1 -67 20)">
	</image>
</g>
</svg>
