<svg width="466" height="692" viewBox="0 0 466 692" fill="none" xmlns="http://www.w3.org/2000/svg">
<g filter="url(#filter0_i_237_2033)">
<path d="M462.78 692.04H4.47003C-5.34997 674.32 3.99003 651.7 4.47003 650.57C13.19 630.21 33.45 623.01 93.81 600.72C106.25 596.12 132.98 586.24 169.87 572.47V481.72L188.4 487.92L221.85 494.13L261.48 490.86L291.33 474V572.47C325.9 585.49 353.96 594.73 372.47 600.57C418.58 615.11 435.04 619.33 448.47 636.57C457.7 648.43 471.08 673.89 462.78 692.04Z" fill="url(#paint0_linear_237_2033)"/>
</g>
<path d="M7.17375 0.034512C7.17375 0.034512 7.08172 0.0115045 7.03571 0C7.03571 0 7.10473 0.0115031 7.17375 0.034512Z" fill="black"/>
<g filter="url(#filter1_f_237_2033)">
<path d="M347.327 597.766L249.342 655.067L394.887 612.664L347.327 597.766Z" fill="#B66B58"/>
</g>
<g filter="url(#filter2_f_237_2033)">
<path d="M115.83 597.766L213.815 657.359L68.27 612.664L115.83 597.766Z" fill="#B66B58"/>
</g>
<path d="M78.6709 295.026C78.6709 295.026 63.6122 269.15 49.027 290.322C49.027 290.322 30.4379 314.315 49.027 355.261C49.027 355.261 80.4104 415.989 100.368 393.746L78.6709 295.036V295.026Z" fill="#C1735D"/>
<path d="M93.4924 374.261C92.566 373.417 91.2382 372.357 89.509 371.431C88.8605 371.07 88.1606 370.741 87.4092 370.453C86.3285 370.031 85.3506 369.773 84.4345 369.609C84.414 369.599 84.3934 369.598 84.3728 369.598L82.3039 369.341C82.3039 369.341 82.2113 369.331 82.1701 369.331L76.3648 368.631L70.5184 363.546L64.5999 354.972C64.5485 354.91 64.497 354.838 64.4558 354.766L60.4416 348.961L54.1937 338.925C53.7203 332.585 56.5714 326.883 61.3371 324.546C64.5176 322.992 67.6673 323.362 69.1906 323.661L71.2183 324.145L73.524 327.016L75.0576 331.514L74.615 336.723L74.193 340.469L75.0576 344.792L78.1867 348.632L81.9539 351.215C81.9539 351.215 85.7006 355.013 89.509 352.924L93.2248 372.81L93.4924 374.261Z" fill="url(#paint1_linear_237_2033)" fill-opacity="0.4"/>
<path d="M94.1923 373.685C93.9556 373.88 93.7291 374.066 93.4924 374.261C92.566 373.417 91.2382 372.357 89.509 371.431C88.8605 371.07 88.1606 370.741 87.4092 370.453C86.3285 370.031 85.3506 369.773 84.4345 369.609C84.414 369.598 84.3934 369.598 84.3728 369.598C83.642 369.454 82.9626 369.382 82.3039 369.341C82.2627 369.331 82.2113 369.331 82.1701 369.331C80.1938 369.197 78.4234 369.269 76.3648 368.631C73.4519 367.725 71.311 365.831 67.0291 360.036C63.478 355.219 58.8256 348.23 54.1937 338.925C56.3861 342.662 58.4756 346.007 60.4416 348.961C61.862 351.102 63.2001 353.037 64.4558 354.766C64.497 354.838 64.5485 354.91 64.5999 354.972C65.9586 356.866 67.2041 358.513 68.3054 359.923C71.3624 363.845 73.4931 366.202 76.9515 367.396C80.4512 368.59 82.7156 367.704 86.8946 369.156C89.6016 370.103 91.7014 371.533 93.2248 372.81C93.5747 373.119 93.9041 373.407 94.1923 373.685Z" fill="#400804"/>
<path d="M60.3488 325.092C60.9767 324.649 65.7527 321.386 70.086 323.28C72.4946 324.33 73.6989 326.461 74.2238 327.593C77.6411 334.942 72.7828 340.747 76.1486 345.801C76.9309 346.964 78.3822 348.457 81.3671 349.455L81.9538 351.215C80.3687 350.587 77.0647 348.982 75.1296 345.451C74.934 345.101 74.337 343.959 73.9562 342.271C72.824 337.289 75.4178 335.57 74.4194 330.609C74.2959 329.991 73.8533 328.015 72.3711 326.09C72.3711 326.09 71.4653 325.02 70.3742 324.33C66.5452 321.932 60.6062 324.958 60.3591 325.081L60.3488 325.092Z" fill="#400804"/>
<path d="M368.165 295.026C368.165 295.026 383.224 269.15 397.809 290.322C397.809 290.322 416.398 314.315 397.809 355.261C397.809 355.261 366.426 415.989 346.467 393.746L368.165 295.036V295.026Z" fill="#C1735D"/>
<path d="M353.343 374.261C354.27 373.417 355.597 372.357 357.327 371.431C357.975 371.07 358.675 370.741 359.426 370.453C360.507 370.031 361.485 369.773 362.401 369.609C362.422 369.599 362.442 369.598 362.463 369.598L364.532 369.341C364.532 369.341 364.624 369.331 364.665 369.331L370.471 368.631L376.317 363.546L382.236 354.972C382.287 354.91 382.339 354.838 382.38 354.766L386.394 348.961L392.642 338.925C393.115 332.585 390.264 326.883 385.499 324.546C382.318 322.992 379.168 323.362 377.645 323.661L375.617 324.145L373.312 327.016L371.778 331.514L372.221 336.723L372.643 340.469L371.778 344.792L368.649 348.632L364.882 351.215C364.882 351.215 361.135 355.013 357.327 352.924L353.611 372.81L353.343 374.261Z" fill="url(#paint2_linear_237_2033)" fill-opacity="0.4"/>
<path d="M352.643 373.685C352.88 373.88 353.107 374.066 353.343 374.261C354.27 373.417 355.597 372.357 357.327 371.431C357.975 371.07 358.675 370.741 359.426 370.453C360.507 370.031 361.485 369.773 362.401 369.609C362.422 369.598 362.442 369.598 362.463 369.598C363.194 369.454 363.873 369.382 364.532 369.341C364.573 369.331 364.624 369.331 364.666 369.331C366.642 369.197 368.412 369.269 370.471 368.631C373.384 367.725 375.525 365.831 379.807 360.036C383.358 355.219 388.01 348.23 392.642 338.925C390.45 342.662 388.36 346.007 386.394 348.961C384.974 351.102 383.636 353.037 382.38 354.766C382.339 354.838 382.287 354.91 382.236 354.972C380.877 356.866 379.632 358.513 378.53 359.923C375.473 363.845 373.343 366.202 369.884 367.396C366.385 368.59 364.12 367.704 359.941 369.156C357.234 370.103 355.134 371.533 353.611 372.81C353.261 373.119 352.932 373.407 352.643 373.685Z" fill="#400804"/>
<path d="M386.487 325.092C385.859 324.649 381.083 321.386 376.75 323.28C374.341 324.33 373.137 326.461 372.612 327.593C369.195 334.942 374.053 340.747 370.687 345.801C369.905 346.964 368.453 348.457 365.468 349.455L364.882 351.215C366.467 350.587 369.771 348.982 371.706 345.451C371.902 345.101 372.499 343.959 372.879 342.271C374.012 337.289 371.418 335.57 372.416 330.609C372.54 329.991 372.982 328.015 374.465 326.09C374.465 326.09 375.37 325.02 376.461 324.33C380.29 321.932 386.229 324.958 386.476 325.081L386.487 325.092Z" fill="#400804"/>
<path d="M372.19 244.847L371.802 284.207C370.271 296.837 368.73 309.478 367.2 322.118C366.863 323.924 366.526 325.709 366.2 327.451L366.128 327.798C364.036 338.906 362.087 348.712 360.394 356.974C360.098 358.402 359.812 359.777 359.547 361.1C355.526 380.523 353.343 389.415 350.741 397.478C350.261 398.927 349.781 400.345 349.271 401.793C346.924 408.492 344.251 415.967 339.128 425.353C331.628 439.096 323.751 447.988 321.251 450.707C317.822 454.455 314.23 457.836 313.516 458.518C308.322 463.39 304.108 466.686 302.434 468.009C279.751 485.815 277.097 490.34 264.322 497.784C253.271 504.209 244.822 509.133 232.352 510.267C229.597 510.519 227.005 510.561 224.495 510.414C221.985 510.561 219.383 510.519 216.628 510.267C204.158 509.133 195.709 504.209 184.658 497.784C171.883 490.34 169.22 485.815 146.546 468.009C144.862 466.686 140.648 463.39 135.464 458.518C134.75 457.836 131.158 454.455 127.73 450.707C125.23 447.988 117.352 439.096 109.852 425.353C104.73 415.967 102.056 408.492 99.7093 401.793C99.1991 400.345 98.7195 398.927 98.2399 397.478C95.6378 389.415 93.4541 380.523 89.4337 361.1C89.1582 359.777 88.8725 358.402 88.5868 356.974C86.8929 348.712 84.9439 338.906 82.8521 327.798L82.7806 327.451C82.4541 325.709 82.1174 323.924 81.7806 322.118C80.25 309.478 78.7092 296.837 77.1786 284.207L76.7908 244.847C77.2908 232.364 80.7806 184.437 122.097 143.345C133.556 131.932 168.158 100.929 222.73 94.8506C223.312 94.7771 223.903 94.7141 224.505 94.6616C225.097 94.7141 225.689 94.7771 226.271 94.8506C280.842 100.929 315.444 131.932 326.894 143.345C368.21 184.437 371.7 232.364 372.2 244.847H372.19Z" fill="#D29076"/>
<path d="M218.587 98.9538C217.98 99.0053 217.383 99.067 216.796 99.1391V98.7788C217.393 98.8303 218 98.892 218.587 98.9538Z" fill="#D29076"/>
<path d="M220.357 98.7788V99.1391C219.771 99.067 219.174 99.0053 218.577 98.9538C219.163 98.8817 219.76 98.8303 220.357 98.7788Z" fill="#D29076"/>
<g filter="url(#filter3_f_237_2033)">
<path d="M203.188 393.302C203.188 393.302 211.557 380.951 220.748 393.271C220.748 393.271 227.315 402.648 234.623 393.271C234.623 393.271 242.292 381.949 249.435 391.213C249.435 391.213 260.819 384.687 254.376 372.161C254.149 370.812 251.699 357.925 239.204 351.688C230.65 347.427 221.006 348.075 213.79 351.863C207.11 355.373 204.146 361.662 198.238 374.24C196.189 378.594 195.129 381.805 196.138 385.315C197.435 389.865 201.459 392.366 203.178 393.292L203.188 393.302Z" fill="url(#paint3_linear_237_2033)"/>
</g>
<path d="M284.184 272.854L284.112 271.855C284.153 272.123 284.174 272.463 284.184 272.854Z" fill="#211310"/>
<path d="M234.037 392.695L239.801 385.994C240.161 385.747 242.014 384.523 244.134 385.109C246.275 385.706 247.86 387.93 247.449 388.702C247.201 389.165 246.224 389.113 244.978 389.051C243.136 388.959 242.703 388.475 241.571 388.578C240.532 388.681 239.863 389.185 238.627 390.112C236.353 391.82 235.529 393.55 234.634 393.282C234.448 393.23 234.232 393.076 234.037 392.695Z" fill="#3A0601"/>
<path d="M221.345 392.695L215.581 385.994C215.221 385.747 213.368 384.523 211.248 385.109C209.107 385.706 207.522 387.93 207.934 388.702C208.181 389.165 209.158 389.113 210.404 389.051C212.246 388.959 212.679 388.475 213.811 388.578C214.851 388.681 215.52 389.185 216.755 390.112C219.029 391.82 219.853 393.55 220.748 393.282C220.934 393.23 221.15 393.076 221.345 392.695Z" fill="#3A0601"/>
<path d="M185.691 442.678C185.691 442.678 198.721 466.825 215.571 464.087C215.571 464.087 237.897 464.88 247.86 461.967C247.86 461.967 262.857 452.518 268.148 436.018L256.074 434.567L235.509 433.414L208.572 437.439L185.691 442.667V442.678Z" fill="url(#paint4_linear_237_2033)"/>
<path d="M249.445 391.223C249.445 391.223 258.534 384.605 254.386 372.171C254.386 372.171 262.24 385.14 249.445 391.223Z" fill="#3A0601"/>
<path d="M179.937 437.459L203.189 420.167C203.189 420.167 214.593 408.752 224.032 416.307C224.032 416.307 228.767 417.851 234.026 414.547C234.026 414.547 240.521 407.28 254.726 418.747L272.347 432.436L268.137 436.029L263.608 436.214L252.729 433.857L243.969 433.682L234.912 435.627L218.443 436.039L208.562 437.459L194.738 440.753L185.33 441.052L179.937 437.47V437.459Z" fill="url(#paint5_linear_237_2033)"/>
<path d="M203.189 393.303C203.189 393.303 194.1 386.684 198.248 374.25C198.248 374.25 190.394 387.219 203.189 393.303Z" fill="#3A0601"/>
<path d="M187.142 442.678C184.394 442.688 179.412 442.719 178.63 440.568C178.239 439.497 178.908 437.943 179.947 437.459C181.296 436.821 182.634 438.324 185.454 439.281C187.358 439.93 188.789 439.94 191.537 439.961C198.022 440.012 208.582 435.936 214.933 434.186C215.685 433.98 228.757 430.501 242.065 432.57C247.305 433.383 252.719 433.322 257.803 434.814C258.74 435.092 261.138 435.843 264.216 435.463C266.511 435.185 268.302 434.382 269.455 433.754C269.455 433.754 273.274 430.151 273.572 434.742C272.842 435.329 271.627 436.204 269.949 436.832C264.967 438.705 261.859 436.204 253.357 435.257C248.602 434.732 245.246 434.361 241.108 435.627C238.164 436.533 237.197 437.542 233.697 438.334C231.134 438.911 229.004 438.88 224.835 438.777C216.611 438.592 214.418 437.645 208.922 438.53C208.624 438.581 207.409 438.849 205 439.384C193.287 441.999 191.064 442.647 187.163 442.668L187.142 442.678Z" fill="#3A0601"/>
<g filter="url(#filter4_f_237_2033)">
<path d="M235.673 369.587C234.706 373.19 229.23 374.116 228.437 374.25C227.017 374.487 223.301 375.125 221.202 372.933C218.484 370.092 220.296 364.42 222.848 361.404C223.476 360.663 225.782 357.936 228.437 358.368C230.084 358.636 231.042 359.984 232.616 362.228C234.86 365.419 236.26 367.405 235.673 369.587Z" fill="#DA9B80"/>
</g>
<path d="M114.772 291.565C115.75 294.581 120.546 308.374 134.565 315.198C142.161 318.893 150.293 318.965 154.101 318.78C154.884 318.739 155.45 318.698 155.944 318.656C166.504 317.771 173.987 314.251 179.71 314.128C181.47 314.086 182.417 314.128 182.417 314.128C186.03 314.261 186.771 314.869 187.204 314.385C186.936 313.85 184.857 309.732 181.398 304.329C181.234 304.143 181.059 303.979 180.884 303.804C180.75 303.485 180.606 303.166 180.451 302.857C177.013 297.607 172.423 291.421 167.05 286.182C160.679 281.437 153.082 278.637 145.126 278.39C127.834 277.865 116.552 289.651 114.772 291.565Z" fill="white"/>
<path d="M199.586 273.079C199.514 267.552 197.6 259.678 197.527 254.15C192.484 252.74 172.783 247.233 167.688 245.844C157.025 242.941 146.443 240.141 135.955 237.455C132.414 236.765 126.485 236.086 119.486 237.692C109.214 240.039 102.657 245.916 99.9602 248.643C104.345 247.717 110.799 246.78 118.529 247.305C129.47 248.046 137.025 251.34 144.189 254.15C153.206 257.691 166.196 262.282 183.117 266.605L199.586 273.079Z" fill="#5D2119" fill-opacity="0.9"/>
<path d="M147.093 316.822C136.861 316.822 128.567 308.527 128.567 298.296C128.567 288.064 136.861 279.77 147.093 279.77C157.325 279.77 165.619 288.064 165.619 298.296C165.619 308.527 157.325 316.822 147.093 316.822Z" fill="url(#paint6_radial_237_2033)"/>
<path d="M149.614 296.946L148.852 300.18L147.605 299.467L147.065 297.281C147.208 297.235 147.352 297.194 147.5 297.158C147.74 297.099 147.983 297.05 148.228 297.015C148.681 296.948 149.144 296.925 149.614 296.943V296.946Z" fill="#162C3D" fill-opacity="0.4"/>
<path d="M153.112 282.101L149.614 296.946L148.852 300.18L147.605 299.467L147.5 297.158L147.27 292.17L146.779 281.426L147.727 285.415L147.957 283.62L149.011 286.297L150.627 284.318L150.33 287.1L153.112 282.101Z" fill="#7D9CB3" fill-opacity="0.7"/>
<path d="M148.852 300.18L147.605 299.467L147.065 297.281L144.163 285.533L145.403 288.146L145.043 284.717L146.045 288.296L145.414 282.776L147.27 292.17L148.229 297.017L148.852 300.18Z" fill="#162C3D" fill-opacity="0.4"/>
<path d="M149.857 297.564L148.372 300.535L147.321 299.554L147.3 297.304C147.451 297.291 147.6 297.286 147.75 297.283C147.996 297.283 148.244 297.291 148.492 297.314C148.947 297.355 149.405 297.437 149.857 297.564Z" fill="#162C3D" fill-opacity="0.4"/>
<path d="M156.684 283.927L149.857 297.564L148.372 300.535L147.321 299.554L147.75 297.283L148.678 292.374L150.678 281.81L150.683 285.911L151.317 284.216L151.726 287.064L153.756 285.512L152.826 288.148L156.684 283.927Z" fill="#7D9CB3" fill-opacity="0.7"/>
<path d="M148.372 300.535L147.321 299.554L147.3 297.304L147.185 285.2L147.791 288.03L148.229 284.609L148.379 288.324L149.039 282.807L148.678 292.374L148.492 297.314L148.372 300.535Z" fill="#162C3D" fill-opacity="0.4"/>
<path d="M149.951 298.221L147.819 300.768L147.024 299.571L147.523 297.378C147.671 297.401 147.819 297.429 147.965 297.462C148.205 297.516 148.443 297.582 148.681 297.661C149.115 297.805 149.54 297.991 149.951 298.221Z" fill="#162C3D" fill-opacity="0.4"/>
<path d="M159.739 286.527L149.952 298.222L147.822 300.768L147.024 299.572L147.965 297.462L150 292.901L154.382 283.081L153.442 287.072L154.451 285.571L154.191 288.434L156.525 287.394L155.011 289.743L159.739 286.527Z" fill="#7D9CB3" fill-opacity="0.7"/>
<path d="M147.822 300.768L147.024 299.572L147.523 297.378L150.202 285.576L150.138 288.468L151.355 285.241L150.644 288.892L152.559 283.674L150 292.901L148.681 297.662L147.822 300.768Z" fill="#162C3D" fill-opacity="0.4"/>
<path d="M149.893 298.884L147.231 300.87L146.733 299.523L147.725 297.503C147.863 297.559 148.001 297.621 148.136 297.687C148.359 297.797 148.576 297.915 148.786 298.048C149.174 298.288 149.545 298.567 149.893 298.884Z" fill="#162C3D" fill-opacity="0.4"/>
<path d="M162.114 289.759L149.893 298.884L147.231 300.87L146.733 299.523L148.134 297.687L151.169 293.716L157.696 285.172L155.86 288.838L157.187 287.608L156.274 290.336L158.785 289.861L156.77 291.801L162.114 289.759Z" fill="#7D9CB3" fill-opacity="0.7"/>
<path d="M147.231 300.87L146.733 299.523L147.725 297.5L153.053 286.634L152.324 289.436L154.252 286.575L152.718 289.963L155.784 285.328L151.169 293.716L148.786 298.045L147.231 300.87Z" fill="#162C3D" fill-opacity="0.4"/>
<path d="M149.681 299.513L146.633 300.832L146.459 299.405L147.889 297.667C148.011 297.754 148.129 297.846 148.247 297.94C148.436 298.096 148.62 298.262 148.796 298.441C149.118 298.764 149.415 299.122 149.681 299.51V299.513Z" fill="#162C3D" fill-opacity="0.4"/>
<path d="M163.676 293.453L149.681 299.512L146.633 300.832L146.459 299.408L148.246 297.943L152.115 294.78L160.437 287.969L157.804 291.116L159.381 290.226L157.862 292.668L160.414 292.786L158.008 294.207L163.676 293.453Z" fill="#7D9CB3" fill-opacity="0.7"/>
<path d="M146.633 300.832L146.459 299.408L147.891 297.669L155.582 288.324L154.227 290.881L156.76 288.542L154.487 291.484L158.54 287.683L152.115 294.78L148.796 298.444L146.633 300.832Z" fill="#162C3D" fill-opacity="0.4"/>
<path d="M149.331 300.078L146.061 300.658L146.219 299.229L148.011 297.869C148.111 297.981 148.206 298.099 148.295 298.219C148.443 298.416 148.584 298.621 148.714 298.833C148.955 299.221 149.159 299.638 149.328 300.078H149.331Z" fill="#162C3D" fill-opacity="0.4"/>
<path d="M164.346 297.409L149.331 300.078L146.06 300.658L146.222 299.232L148.298 298.219L152.79 296.033L162.457 291.326L159.171 293.778L160.91 293.277L158.87 295.304L161.327 296.008L158.655 296.836L164.346 297.409Z" fill="#7D9CB3" fill-opacity="0.7"/>
<path d="M146.06 300.658L146.222 299.232L148.014 297.869L157.653 290.552L155.743 292.727L158.75 291.035L155.858 293.374L160.68 290.608L152.79 296.033L148.717 298.833L146.06 300.658Z" fill="#162C3D" fill-opacity="0.4"/>
<path d="M148.86 300.545L145.544 300.356L146.03 299.004L148.088 298.094C148.157 298.226 148.223 298.362 148.285 298.5C148.384 298.725 148.474 298.958 148.551 299.193C148.694 299.628 148.799 300.078 148.86 300.545Z" fill="#162C3D" fill-opacity="0.4"/>
<path d="M164.085 301.412L148.86 300.545L145.544 300.356L146.03 299.004L148.282 298.5L153.158 297.408L163.651 295.056L159.887 296.687L161.695 296.598L159.243 298.101L161.472 299.351L158.68 299.541L164.085 301.412Z" fill="#7D9CB3" fill-opacity="0.7"/>
<path d="M145.544 300.356L146.029 299.004L148.088 298.094L159.153 293.195L156.796 294.872L160.109 293.919L156.758 295.529L162.086 293.949L153.158 297.409L148.55 299.193L145.544 300.356Z" fill="#162C3D" fill-opacity="0.4"/>
<path d="M148.295 300.893L145.112 299.945L145.894 298.74L148.106 298.329C148.144 298.475 148.175 298.62 148.203 298.769C148.249 299.012 148.282 299.257 148.303 299.505C148.341 299.96 148.341 300.423 148.292 300.893H148.295Z" fill="#162C3D" fill-opacity="0.4"/>
<path d="M162.909 305.247L148.295 300.893L145.112 299.945L145.894 298.74L148.205 298.769L153.199 298.83L163.952 298.963L159.915 299.681L161.692 300.011L158.959 300.909L160.841 302.64L158.082 302.182L162.909 305.247Z" fill="#7D9CB3" fill-opacity="0.7"/>
<path d="M145.112 299.945L145.894 298.741L148.106 298.329L160.005 296.115L157.323 297.201L160.769 297.04L157.136 297.833L162.684 297.524L153.199 298.83L148.305 299.505L145.112 299.945Z" fill="#162C3D" fill-opacity="0.4"/>
<path d="M147.663 301.1L144.784 299.444L145.825 298.452L148.072 298.562C148.075 298.712 148.072 298.861 148.065 299.012C148.052 299.257 148.029 299.505 147.993 299.75C147.927 300.203 147.817 300.653 147.663 301.098V301.1Z" fill="#162C3D" fill-opacity="0.4"/>
<path d="M160.879 308.707L147.663 301.1L144.785 299.444L145.825 298.452L148.065 299.012L152.912 300.223L163.344 302.834L159.251 302.601L160.905 303.332L158.039 303.575L159.468 305.692L156.891 304.611L160.879 308.707Z" fill="#7D9CB3" fill-opacity="0.7"/>
<path d="M144.785 299.444L145.825 298.452L148.073 298.562L160.161 299.15L157.3 299.589L160.69 300.226L156.973 300.162L162.444 301.141L152.912 300.223L147.993 299.753L144.785 299.444Z" fill="#162C3D" fill-opacity="0.4"/>
<path d="M147.001 301.157L144.582 298.881L145.822 298.158L147.985 298.782C147.955 298.927 147.916 299.073 147.876 299.219C147.806 299.457 147.727 299.689 147.635 299.922C147.466 300.346 147.257 300.76 147.004 301.157H147.001Z" fill="#162C3D" fill-opacity="0.4"/>
<path d="M158.108 311.606L147.001 301.157L144.582 298.881L145.822 298.155L147.873 299.216L152.309 301.515L161.858 306.459L157.929 305.288L159.371 306.383L156.525 305.956L157.43 308.346L155.17 306.7L158.108 311.606Z" fill="#7D9CB3" fill-opacity="0.7"/>
<path d="M144.583 298.881L145.823 298.155L147.986 298.781L159.611 302.141L156.727 301.908L159.879 303.312L156.274 302.389L161.373 304.603L152.309 301.515L147.633 299.919L144.583 298.881Z" fill="#162C3D" fill-opacity="0.4"/>
<path d="M146.344 301.057L144.516 298.286L145.891 297.866L147.852 298.973C147.789 299.109 147.719 299.242 147.643 299.372C147.52 299.587 147.39 299.797 147.247 300.001C146.986 300.374 146.684 300.73 146.347 301.057H146.344Z" fill="#162C3D" fill-opacity="0.4"/>
<path d="M154.74 313.787L146.344 301.057L144.516 298.286L145.889 297.866L147.64 299.372L151.427 302.632L159.578 309.645L156.024 307.6L157.174 308.996L154.505 307.924L154.832 310.461L153.015 308.336L154.74 313.787Z" fill="#7D9CB3" fill-opacity="0.7"/>
<path d="M144.516 298.286L145.889 297.866L147.85 298.973L158.386 304.925L155.635 304.033L158.379 306.124L155.083 304.396L159.534 307.728L151.427 302.632L147.244 300.001L144.516 298.286Z" fill="#162C3D" fill-opacity="0.4"/>
<path d="M145.728 300.811L144.588 297.692L146.022 297.603L147.674 299.131C147.579 299.249 147.482 299.362 147.38 299.472C147.211 299.653 147.034 299.827 146.848 299.991C146.508 300.295 146.132 300.568 145.728 300.811Z" fill="#162C3D" fill-opacity="0.4"/>
<path d="M150.962 315.134L145.728 300.811L144.588 297.692L146.022 297.6L147.377 299.469L150.31 303.514L156.625 312.22L153.639 309.407L154.436 311.033L152.084 309.376L151.818 311.918L150.54 309.43L150.962 315.134Z" fill="#7D9CB3" fill-opacity="0.7"/>
<path d="M144.588 297.692L146.022 297.6L147.674 299.129L156.553 307.351L154.081 305.848L156.267 308.517L153.462 306.076L157.024 310.343L150.31 303.514L146.848 299.991L144.588 297.692Z" fill="#162C3D" fill-opacity="0.4"/>
<path d="M145.183 300.428L144.792 297.13L146.209 297.373L147.464 299.242C147.344 299.334 147.224 299.42 147.098 299.505C146.894 299.643 146.682 299.771 146.462 299.888C146.06 300.106 145.633 300.287 145.183 300.428Z" fill="#162C3D" fill-opacity="0.4"/>
<path d="M146.976 315.574L145.184 300.428L144.795 297.13L146.211 297.373L147.099 299.505L149.021 304.115L153.158 314.042L150.9 310.619L151.299 312.383L149.395 310.228L148.551 312.639L147.878 309.926L146.976 315.574Z" fill="#7D9CB3" fill-opacity="0.7"/>
<path d="M144.795 297.13L146.211 297.373L147.464 299.242L154.211 309.289L152.15 307.257L153.664 310.356L151.496 307.334L153.979 312.306L149.021 304.115L146.462 299.888L144.795 297.13Z" fill="#162C3D" fill-opacity="0.4"/>
<path d="M144.744 299.932L145.124 296.631L146.446 297.194L147.236 299.3C147.098 299.362 146.96 299.421 146.82 299.472C146.589 299.559 146.352 299.633 146.111 299.699C145.669 299.817 145.214 299.896 144.744 299.929V299.932Z" fill="#162C3D" fill-opacity="0.4"/>
<path d="M142.995 315.081L144.744 299.932L145.124 296.631L146.446 297.194L146.82 299.474L147.628 304.404L149.364 315.017L147.955 311.164L147.937 312.974L146.582 310.437L145.204 312.59L145.176 309.793L142.995 315.081Z" fill="#7D9CB3" fill-opacity="0.7"/>
<path d="M145.125 296.631L146.446 297.194L147.236 299.3L151.483 310.634L149.947 308.182L150.706 311.547L149.295 308.106L150.56 313.518L147.628 304.404L146.114 299.699L145.125 296.631Z" fill="#162C3D" fill-opacity="0.4"/>
<path d="M144.432 299.346L145.564 296.225L146.72 297.076L147.004 299.308C146.855 299.336 146.707 299.362 146.559 299.38C146.313 299.41 146.068 299.431 145.817 299.436C145.36 299.449 144.897 299.421 144.432 299.346Z" fill="#162C3D" fill-opacity="0.4"/>
<path d="M139.234 313.682L144.432 299.346L145.562 296.222L146.72 297.074L146.556 299.38L146.204 304.363L145.447 315.088L144.966 311.015L144.531 312.772L143.795 309.993L141.959 311.77L142.576 309.042L139.234 313.682Z" fill="#7D9CB3" fill-opacity="0.7"/>
<path d="M145.562 296.222L146.72 297.074L147.001 299.308L148.52 311.315L147.592 308.574L147.553 312.023L146.973 308.349L146.958 313.907L146.203 304.363L145.815 299.436L145.562 296.222Z" fill="#162C3D" fill-opacity="0.4"/>
<path d="M144.26 298.702L146.081 295.926L147.009 297.023L146.769 299.26C146.618 299.255 146.47 299.242 146.319 299.227C146.073 299.201 145.828 299.163 145.585 299.111C145.137 299.019 144.693 298.884 144.258 298.705L144.26 298.702Z" fill="#162C3D" fill-opacity="0.4"/>
<path d="M135.897 311.455L144.26 298.702L146.081 295.926L147.011 297.023L146.321 299.227L144.831 303.995L141.617 314.258L142.09 310.182L141.261 311.793L141.187 308.917L138.991 310.223L140.221 307.71L135.897 311.455Z" fill="#7D9CB3" fill-opacity="0.7"/>
<path d="M146.081 295.926L147.011 297.023L146.771 299.26L145.48 311.292L145.206 308.413L144.375 311.76L144.657 308.05L143.36 313.455L144.831 303.995L145.587 299.111L146.081 295.926Z" fill="#162C3D" fill-opacity="0.4"/>
<path d="M144.242 298.04L146.656 295.757L147.308 297.038L146.559 299.16C146.413 299.119 146.27 299.076 146.129 299.025C145.897 298.943 145.667 298.848 145.442 298.743C145.027 298.549 144.626 298.316 144.245 298.04H144.242Z" fill="#162C3D" fill-opacity="0.4"/>
<path d="M133.164 308.52L144.242 298.04L146.656 295.757L147.308 297.038L146.127 299.025L143.578 303.317L138.086 312.565L139.482 308.71L138.306 310.082L138.896 307.268L136.457 308.032L138.234 305.872L133.164 308.52Z" fill="#7D9CB3" fill-opacity="0.7"/>
<path d="M146.656 295.757L147.308 297.038L146.559 299.16L142.527 310.571L142.926 307.705L141.343 310.77L142.473 307.227L139.965 312.187L143.578 303.317L145.439 298.741L146.656 295.757Z" fill="#162C3D" fill-opacity="0.4"/>
<path d="M144.378 297.388L147.252 295.723L147.589 297.119L146.37 299.011C146.239 298.94 146.109 298.861 145.983 298.781C145.776 298.648 145.574 298.503 145.38 298.349C145.022 298.065 144.687 297.746 144.378 297.39V297.388Z" fill="#162C3D" fill-opacity="0.4"/>
<path d="M131.183 305.032L144.378 297.388L147.254 295.723L147.592 297.119L145.986 298.781L142.514 302.371L135.038 310.102L137.286 306.674L135.826 307.74L137.048 305.135L134.499 305.316L136.726 303.624L131.183 305.032Z" fill="#7D9CB3" fill-opacity="0.7"/>
<path d="M147.254 295.723L147.592 297.119L146.372 299.011L139.819 309.187L140.868 306.49L138.62 309.108L140.538 305.92L136.953 310.169L142.514 302.371L145.383 298.349L147.254 295.723Z" fill="#162C3D" fill-opacity="0.4"/>
<path d="M144.662 296.787L147.842 295.831L147.85 297.268L146.227 298.828C146.114 298.725 146.007 298.623 145.904 298.513C145.733 298.334 145.569 298.147 145.416 297.953C145.132 297.595 144.879 297.207 144.662 296.787Z" fill="#162C3D" fill-opacity="0.4"/>
<path d="M130.058 301.182L144.662 296.787L147.842 295.831L147.85 297.268L145.904 298.513L141.696 301.205L132.64 307.004L135.619 304.186L133.952 304.887L135.741 302.635L133.22 302.223L135.777 301.09L130.058 301.182Z" fill="#7D9CB3" fill-opacity="0.7"/>
<path d="M147.842 295.831L147.85 297.268L146.227 298.828L137.503 307.216L139.147 304.833L136.358 306.863L138.958 304.204L134.489 307.51L141.696 301.205L145.416 297.953L147.842 295.831Z" fill="#162C3D" fill-opacity="0.4"/>
<path d="M145.076 296.268L148.392 296.071L148.067 297.47L146.129 298.613C146.045 298.487 145.963 298.362 145.887 298.232C145.761 298.02 145.646 297.8 145.541 297.575C145.35 297.16 145.191 296.723 145.076 296.268Z" fill="#162C3D" fill-opacity="0.4"/>
<path d="M129.853 297.176L145.076 296.268L148.392 296.071L148.067 297.47L145.887 298.234L141.172 299.883L131.022 303.437L134.57 301.382L132.786 301.678L135.049 299.901L132.689 298.919L135.437 298.406L129.853 297.176Z" fill="#7D9CB3" fill-opacity="0.7"/>
<path d="M148.392 296.071L148.067 297.47L146.129 298.613L135.706 304.764L137.853 302.826L134.67 304.156L137.815 302.167L132.704 304.355L141.172 299.883L145.541 297.575L148.392 296.071Z" fill="#162C3D" fill-opacity="0.4"/>
<path d="M145.598 295.857L148.87 296.429L148.231 297.715L146.081 298.38C146.027 298.24 145.979 298.099 145.933 297.953C145.861 297.718 145.797 297.478 145.748 297.232C145.656 296.785 145.605 296.325 145.598 295.852V295.857Z" fill="#162C3D" fill-opacity="0.4"/>
<path d="M130.577 293.228L145.598 295.857L148.87 296.429L148.231 297.718L145.933 297.956L140.965 298.475L130.27 299.592L134.197 298.411L132.392 298.288L135.002 297.081L132.934 295.58L135.726 295.713L130.577 293.228Z" fill="#7D9CB3" fill-opacity="0.7"/>
<path d="M148.87 296.429L148.231 297.718L146.081 298.383L134.519 301.965L137.058 300.571L133.655 301.134L137.171 299.924L131.694 300.873L140.965 298.475L145.748 297.237L148.87 296.429Z" fill="#162C3D" fill-opacity="0.4"/>
<path d="M146.201 295.578L149.254 296.889L148.336 297.994L146.091 298.147C146.071 297.999 146.055 297.848 146.045 297.7C146.03 297.455 146.025 297.207 146.032 296.956C146.045 296.498 146.101 296.038 146.204 295.578H146.201Z" fill="#162C3D" fill-opacity="0.4"/>
<path d="M132.19 289.557L146.201 295.578L149.251 296.89L148.333 297.994L146.042 297.7L141.09 297.058L130.423 295.678L134.517 295.435L132.791 294.898L135.608 294.325L133.941 292.387L136.629 293.164L132.19 289.557Z" fill="#7D9CB3" fill-opacity="0.7"/>
<path d="M149.251 296.89L148.333 297.994L146.089 298.148L134.013 298.966L136.802 298.196L133.361 297.958L137.063 297.593L131.515 297.253L141.09 297.058L146.03 296.956L149.251 296.89Z" fill="#162C3D" fill-opacity="0.4"/>
<path d="M146.85 295.445L149.517 297.424L148.369 298.288L146.15 297.917C146.165 297.766 146.183 297.618 146.209 297.47C146.249 297.227 146.301 296.984 146.367 296.744C146.485 296.304 146.646 295.867 146.85 295.442V295.445Z" fill="#162C3D" fill-opacity="0.4"/>
<path d="M134.606 286.356L146.85 295.445L149.517 297.426L148.369 298.291L146.209 297.472L141.537 295.706L131.477 291.904L135.516 292.609L133.959 291.692L136.833 291.784L135.66 289.513L138.094 290.889L134.606 286.356Z" fill="#7D9CB3" fill-opacity="0.7"/>
<path d="M149.517 297.426L148.369 298.291L146.15 297.92L134.212 295.931L137.104 295.826L133.811 294.801L137.495 295.297L132.177 293.688L141.537 295.706L146.367 296.746L149.517 297.426Z" fill="#162C3D" fill-opacity="0.4"/>
<path d="M147.515 295.468L149.655 298.009L148.338 298.585L146.262 297.713C146.311 297.57 146.365 297.432 146.423 297.291C146.518 297.063 146.625 296.841 146.746 296.621C146.963 296.22 147.219 295.834 147.518 295.468H147.515Z" fill="#162C3D" fill-opacity="0.4"/>
<path d="M137.697 283.799L147.515 295.468L149.653 298.009L148.336 298.585L146.423 297.291L142.284 294.494L133.374 288.475L137.14 290.094L135.836 288.841L138.613 289.593L137.991 287.115L140.044 289.012L137.697 283.799Z" fill="#7D9CB3" fill-opacity="0.7"/>
<path d="M149.653 298.01L148.336 298.585L146.262 297.713L135.105 293.024L137.943 293.589L134.974 291.832L138.446 293.167L133.64 290.373L142.284 294.494L146.743 296.621L149.653 298.01Z" fill="#162C3D" fill-opacity="0.4"/>
<path d="M148.157 295.642L149.653 298.608L148.239 298.863L146.421 297.536C146.5 297.408 146.585 297.286 146.674 297.163C146.82 296.964 146.976 296.772 147.142 296.585C147.446 296.245 147.784 295.928 148.157 295.639V295.642Z" fill="#162C3D" fill-opacity="0.4"/>
<path d="M141.295 282.022L148.157 295.642L149.65 298.608L148.236 298.863L146.674 297.163L143.289 293.489L136.007 285.576L139.3 288.02L138.321 286.499L140.85 287.872L140.816 285.318L142.376 287.639L141.295 282.022Z" fill="#7D9CB3" fill-opacity="0.7"/>
<path d="M149.65 298.608L148.236 298.864L146.418 297.537L136.644 290.403L139.275 291.608L136.792 289.212L139.863 291.311L135.831 287.486L143.289 293.489L147.139 296.586L149.65 298.608Z" fill="#162C3D" fill-opacity="0.4"/>
<path d="M148.74 295.956L149.509 299.188L148.075 299.111L146.613 297.401C146.72 297.296 146.83 297.194 146.945 297.097C147.132 296.936 147.329 296.785 147.533 296.642C147.906 296.381 148.31 296.151 148.74 295.956Z" fill="#162C3D" fill-opacity="0.4"/>
<path d="M145.204 281.122L148.74 295.956L149.509 299.188L148.075 299.111L146.945 297.097L144.501 292.74L139.239 283.362L141.88 286.501L141.279 284.794L143.422 286.714L143.979 284.218L144.961 286.836L145.204 281.122Z" fill="#7D9CB3" fill-opacity="0.7"/>
<path d="M149.509 299.188L148.075 299.111L146.613 297.401L138.746 288.204L141.029 289.984L139.165 287.079L141.668 289.83L138.628 285.18L144.501 292.74L147.533 296.644L149.509 299.188Z" fill="#162C3D" fill-opacity="0.4"/>
<path d="M149.236 296.401L149.241 299.722L147.863 299.318L146.832 297.316C146.96 297.24 147.093 297.166 147.226 297.097C147.446 296.984 147.671 296.882 147.904 296.79C148.328 296.621 148.773 296.491 149.236 296.401Z" fill="#162C3D" fill-opacity="0.4"/>
<path d="M149.215 281.15L149.236 296.401L149.238 299.722L147.86 299.316L147.226 297.097L145.853 292.292L142.895 281.953L144.741 285.617L144.549 283.817L146.191 286.179L147.308 283.881L147.661 286.655L149.215 281.15Z" fill="#7D9CB3" fill-opacity="0.7"/>
<path d="M149.238 299.722L147.86 299.316L146.832 297.316L141.297 286.552L143.11 288.81L141.964 285.555L143.767 288.808L141.88 283.582L145.853 292.292L147.904 296.79L149.238 299.722Z" fill="#162C3D" fill-opacity="0.4"/>
<path d="M147.338 304.603C143.69 304.603 140.732 301.645 140.732 297.996C140.732 294.348 143.69 291.39 147.338 291.39C150.987 291.39 153.945 294.348 153.945 297.996C153.945 301.645 150.987 304.603 147.338 304.603Z" fill="#0F0E0E"/>
<path d="M146.983 314.02C146.983 314.02 134.933 310.238 134.148 299.952C133.553 302.072 133.729 303.706 133.975 304.746C135.092 309.504 140.269 313.171 146.983 314.02Z" fill="url(#paint7_linear_237_2033)"/>
<path d="M154.375 284.696C154.375 284.696 146.835 279.642 138.51 285.131L143.217 290.971C143.217 290.971 147.489 288.705 150.887 290.971L154.375 284.694V284.696Z" fill="url(#paint8_linear_237_2033)"/>
<path d="M153.503 292.717L158.471 287.749C158.471 287.749 165.75 297.337 160.388 305.966L155.942 304.222C156.295 303.348 157.284 300.561 156.29 297.247C155.587 294.908 154.224 293.407 153.5 292.714L153.503 292.717Z" fill="url(#paint9_linear_237_2033)"/>
<path d="M185.588 300.036C185.588 300.036 172.649 249.333 110.068 279.275C110.068 279.275 165.825 252.04 185.588 300.036Z" fill="#0F0E0E"/>
<path d="M196.292 256.157C196.951 258.278 197.558 260.686 198.001 263.363C198.485 266.255 198.701 268.931 198.742 271.34L199.308 271.515C199.339 267.099 198.999 258.906 196.292 256.157Z" fill="#4A1109"/>
<path d="M189.622 251.371C190.94 254.13 192.257 257.321 193.431 260.944C194.532 264.351 195.304 267.552 195.85 270.465L196.467 270.65C195.603 265.73 193.318 254.727 189.622 251.371Z" fill="#4A1109"/>
<path d="M182.53 246.276C184.661 249.621 187.008 253.903 189.005 259.101C190.425 262.796 191.403 266.255 192.082 269.322L193.606 269.785C192.381 264.731 188.397 250.105 182.53 246.276Z" fill="#4A1109"/>
<path d="M173.236 247.336C175.902 250.115 178.763 253.44 181.594 257.341C184.363 261.16 186.607 264.845 188.418 268.221L189.849 268.653C187.636 263.753 181.131 250.661 173.236 247.336Z" fill="#4A1109"/>
<path d="M189.623 264.629C189.623 264.629 184.713 249.632 177.127 246.276C178.763 248.119 180.451 250.167 182.119 252.442C185.279 256.734 187.729 260.882 189.623 264.629Z" fill="#4A1109"/>
<path d="M166.299 245.226C169.376 247.861 172.763 251.124 176.17 255.097C179.824 259.348 182.685 263.476 184.919 267.161L186.741 267.717C184.795 263.774 177.189 249.652 166.299 245.226Z" fill="#4A1109"/>
<path d="M158.918 243.425C163.036 247.048 167.338 251.093 171.713 255.602C175.15 259.163 178.321 262.652 181.203 266.039L183.117 266.615C179.854 262.457 166.885 246.42 158.918 243.425Z" fill="#4A1109"/>
<path d="M155.213 242.633C159.155 246.256 163.252 250.27 167.41 254.696C170.539 258.031 173.432 261.304 176.118 264.495L179.288 265.452C174.44 259.842 161.307 245.062 155.213 242.633Z" fill="#4A1109"/>
<path d="M146.742 240.872C151.219 243.868 156.263 247.707 161.451 252.534C165.341 256.157 168.666 259.739 171.476 263.095L174.42 263.99C169.85 258.885 153.988 241.727 146.742 240.872Z" fill="#4A1109"/>
<path d="M139.681 238.484C145.054 242.108 150.931 246.554 156.963 251.989C160.617 255.272 163.89 258.535 166.793 261.685L168.1 262.076C163.756 257.084 152.002 244.403 139.681 238.484Z" fill="#4A1109"/>
<path d="M131.22 236.807C136.469 240.142 142.172 244.125 148.07 248.901C152.599 252.555 156.654 256.199 160.257 259.698L162.861 260.491C156.736 254.624 138.538 237.723 131.22 236.807Z" fill="#4A1109"/>
<path d="M330.966 291.516C329.988 294.531 325.192 308.324 311.173 315.148C303.576 318.843 295.445 318.915 291.637 318.73C290.854 318.689 290.288 318.648 289.794 318.607C279.234 317.721 271.751 314.201 266.028 314.078C264.268 314.037 263.321 314.078 263.321 314.078C259.708 314.212 258.967 314.819 258.534 314.335C258.802 313.8 260.881 309.683 264.34 304.279C264.504 304.094 264.679 303.929 264.854 303.754C264.988 303.435 265.132 303.116 265.287 302.807C268.724 297.558 273.315 291.371 278.688 286.132C285.059 281.387 292.656 278.588 300.612 278.34C317.904 277.816 329.185 289.601 330.966 291.516Z" fill="white"/>
<path d="M246.152 273.029C246.224 267.502 248.138 259.628 248.21 254.1C253.254 252.69 272.955 247.183 278.05 245.794C288.713 242.891 299.295 240.091 309.783 237.405C313.324 236.715 319.253 236.036 326.252 237.642C336.524 239.988 343.081 245.866 345.778 248.593C341.393 247.667 334.939 246.73 327.209 247.255C316.268 247.996 308.713 251.29 301.549 254.1C292.532 257.641 279.542 262.232 262.621 266.555L246.152 273.029Z" fill="#5D2119" fill-opacity="0.9"/>
<path d="M298.645 316.772C308.876 316.772 317.171 308.477 317.171 298.246C317.171 288.014 308.876 279.719 298.645 279.719C288.413 279.719 280.119 288.014 280.119 298.246C280.119 308.477 288.413 316.772 298.645 316.772Z" fill="url(#paint10_radial_237_2033)"/>
<path d="M296.124 296.896L296.886 300.13L298.133 299.417L298.673 297.231C298.53 297.185 298.386 297.144 298.238 297.108C297.998 297.049 297.755 297 297.509 296.965C297.057 296.898 296.594 296.875 296.124 296.893V296.896Z" fill="#162C3D" fill-opacity="0.4"/>
<path d="M292.626 282.051L296.124 296.896L296.886 300.13L298.133 299.417L298.238 297.108L298.468 292.12L298.959 281.376L298.011 285.365L297.78 283.57L296.727 286.247L295.111 284.268L295.408 287.05L292.626 282.051Z" fill="#7D9CB3" fill-opacity="0.7"/>
<path d="M296.885 300.13L298.133 299.417L298.673 297.231L301.575 285.482L300.335 288.095L300.695 284.667L299.693 288.246L300.324 282.726L298.468 292.12L297.509 296.967L296.885 300.13Z" fill="#162C3D" fill-opacity="0.4"/>
<path d="M295.881 297.514L297.366 300.485L298.417 299.504L298.437 297.254C298.287 297.241 298.138 297.236 297.987 297.233C297.742 297.233 297.494 297.241 297.246 297.264C296.791 297.305 296.333 297.387 295.881 297.514Z" fill="#162C3D" fill-opacity="0.4"/>
<path d="M289.054 283.877L295.881 297.514L297.366 300.485L298.417 299.504L297.987 297.233L297.059 292.324L295.06 281.76L295.055 285.861L294.421 284.166L294.012 287.014L291.982 285.462L292.912 288.098L289.054 283.877Z" fill="#7D9CB3" fill-opacity="0.7"/>
<path d="M297.366 300.485L298.417 299.503L298.437 297.254L298.553 285.15L297.947 287.98L297.509 284.559L297.359 288.274L296.699 282.757L297.059 292.324L297.246 297.264L297.366 300.485Z" fill="#162C3D" fill-opacity="0.4"/>
<path d="M295.786 298.171L297.919 300.718L298.714 299.521L298.215 297.328C298.067 297.351 297.919 297.379 297.773 297.412C297.533 297.466 297.295 297.532 297.057 297.611C296.622 297.755 296.198 297.941 295.786 298.171Z" fill="#162C3D" fill-opacity="0.4"/>
<path d="M285.999 286.477L295.786 298.172L297.916 300.718L298.714 299.521L297.773 297.412L295.738 292.851L291.355 283.031L292.296 287.022L291.286 285.521L291.547 288.384L289.213 287.344L290.726 289.693L285.999 286.477Z" fill="#7D9CB3" fill-opacity="0.7"/>
<path d="M297.916 300.718L298.714 299.522L298.215 297.328L295.536 285.526L295.6 288.418L294.383 285.191L295.094 288.842L293.179 283.624L295.738 292.851L297.057 297.612L297.916 300.718Z" fill="#162C3D" fill-opacity="0.4"/>
<path d="M295.845 298.834L298.507 300.82L299.005 299.473L298.013 297.453C297.875 297.509 297.737 297.57 297.602 297.637C297.379 297.747 297.162 297.865 296.952 297.997C296.564 298.238 296.193 298.516 295.845 298.834Z" fill="#162C3D" fill-opacity="0.4"/>
<path d="M283.624 289.709L295.845 298.834L298.507 300.82L299.005 299.473L297.604 297.637L294.569 293.666L288.042 285.122L289.878 288.788L288.551 287.558L289.463 290.286L286.953 289.811L288.967 291.751L283.624 289.709Z" fill="#7D9CB3" fill-opacity="0.7"/>
<path d="M298.507 300.82L299.005 299.473L298.013 297.45L292.685 286.584L293.414 289.387L291.486 286.526L293.02 289.913L289.954 285.278L294.569 293.666L296.952 297.995L298.507 300.82Z" fill="#162C3D" fill-opacity="0.4"/>
<path d="M296.057 299.463L299.105 300.782L299.279 299.355L297.849 297.617C297.727 297.704 297.609 297.796 297.491 297.89C297.302 298.046 297.118 298.212 296.942 298.391C296.62 298.714 296.323 299.071 296.057 299.46V299.463Z" fill="#162C3D" fill-opacity="0.4"/>
<path d="M282.061 293.403L296.057 299.462L299.105 300.782L299.279 299.358L297.491 297.893L293.623 294.73L285.301 287.919L287.934 291.066L286.357 290.176L287.876 292.618L285.324 292.736L287.73 294.157L282.061 293.403Z" fill="#7D9CB3" fill-opacity="0.7"/>
<path d="M299.105 300.782L299.279 299.358L297.847 297.619L290.156 288.274L291.511 290.831L288.977 288.492L291.25 291.434L287.198 287.633L293.623 294.73L296.942 298.394L299.105 300.782Z" fill="#162C3D" fill-opacity="0.4"/>
<path d="M296.407 300.028L299.677 300.608L299.519 299.179L297.727 297.819C297.627 297.931 297.532 298.049 297.443 298.169C297.294 298.366 297.154 298.571 297.023 298.783C296.783 299.171 296.579 299.588 296.41 300.028H296.407Z" fill="#162C3D" fill-opacity="0.4"/>
<path d="M281.392 297.359L296.407 300.028L299.677 300.608L299.516 299.182L297.44 298.169L292.948 295.983L283.281 291.276L286.566 293.728L284.828 293.227L286.868 295.254L284.411 295.958L287.083 296.786L281.392 297.359Z" fill="#7D9CB3" fill-opacity="0.7"/>
<path d="M299.677 300.608L299.516 299.182L297.724 297.819L288.085 290.501L289.995 292.677L286.988 290.985L289.88 293.324L285.058 290.558L292.948 295.983L297.021 298.783L299.677 300.608Z" fill="#162C3D" fill-opacity="0.4"/>
<path d="M296.878 300.495L300.194 300.306L299.708 298.954L297.65 298.043C297.581 298.176 297.515 298.312 297.453 298.45C297.353 298.675 297.264 298.908 297.187 299.143C297.044 299.577 296.939 300.027 296.878 300.495Z" fill="#162C3D" fill-opacity="0.4"/>
<path d="M281.653 301.362L296.878 300.495L300.194 300.306L299.708 298.954L297.456 298.45L292.58 297.358L282.087 295.006L285.851 296.637L284.043 296.548L286.495 298.051L284.266 299.301L287.058 299.491L281.653 301.362Z" fill="#7D9CB3" fill-opacity="0.7"/>
<path d="M300.194 300.306L299.708 298.954L297.65 298.044L286.585 293.145L288.942 294.822L285.628 293.869L288.98 295.479L283.652 293.899L292.58 297.359L297.187 299.143L300.194 300.306Z" fill="#162C3D" fill-opacity="0.4"/>
<path d="M297.443 300.843L300.626 299.895L299.844 298.691L297.632 298.279C297.594 298.425 297.563 298.571 297.535 298.719C297.489 298.962 297.456 299.207 297.435 299.455C297.397 299.91 297.397 300.373 297.445 300.843H297.443Z" fill="#162C3D" fill-opacity="0.4"/>
<path d="M282.829 305.198L297.443 300.843L300.626 299.895L299.844 298.691L297.532 298.719L292.539 298.78L281.785 298.913L285.823 299.632L284.046 299.961L286.779 300.859L284.897 302.59L287.656 302.132L282.829 305.198Z" fill="#7D9CB3" fill-opacity="0.7"/>
<path d="M300.626 299.895L299.844 298.691L297.632 298.279L285.733 296.065L288.415 297.152L284.969 296.99L288.602 297.783L283.054 297.474L292.539 298.78L297.433 299.455L300.626 299.895Z" fill="#162C3D" fill-opacity="0.4"/>
<path d="M298.075 301.05L300.953 299.394L299.913 298.402L297.665 298.512C297.663 298.662 297.665 298.811 297.673 298.962C297.686 299.207 297.709 299.455 297.745 299.7C297.811 300.153 297.921 300.603 298.075 301.048V301.05Z" fill="#162C3D" fill-opacity="0.4"/>
<path d="M284.859 308.657L298.074 301.05L300.953 299.394L299.913 298.402L297.673 298.962L292.825 300.173L282.394 302.784L286.487 302.551L284.833 303.282L287.699 303.525L286.27 305.642L288.847 304.561L284.859 308.657Z" fill="#7D9CB3" fill-opacity="0.7"/>
<path d="M300.953 299.394L299.913 298.402L297.665 298.512L285.577 299.1L288.438 299.539L285.048 300.176L288.765 300.112L283.294 301.091L292.825 300.173L297.745 299.703L300.953 299.394Z" fill="#162C3D" fill-opacity="0.4"/>
<path d="M298.737 301.107L301.155 298.831L299.915 298.108L297.752 298.732C297.783 298.877 297.821 299.023 297.862 299.169C297.931 299.406 298.011 299.639 298.103 299.872C298.271 300.296 298.481 300.71 298.734 301.107H298.737Z" fill="#162C3D" fill-opacity="0.4"/>
<path d="M287.63 311.556L298.737 301.107L301.155 298.831L299.915 298.105L297.865 299.166L293.429 301.465L283.88 306.41L287.809 305.239L286.367 306.333L289.213 305.906L288.308 308.296L290.568 306.65L287.63 311.556Z" fill="#7D9CB3" fill-opacity="0.7"/>
<path d="M301.155 298.831L299.915 298.105L297.752 298.732L286.127 302.091L289.011 301.859L285.858 303.262L289.463 302.339L284.365 304.553L293.429 301.465L298.105 299.869L301.155 298.831Z" fill="#162C3D" fill-opacity="0.4"/>
<path d="M299.394 301.007L301.222 298.235L299.846 297.816L297.885 298.923C297.949 299.059 298.018 299.192 298.095 299.322C298.218 299.537 298.348 299.746 298.491 299.951C298.752 300.324 299.054 300.68 299.391 301.007H299.394Z" fill="#162C3D" fill-opacity="0.4"/>
<path d="M290.997 313.737L299.394 301.007L301.222 298.235L299.849 297.816L298.098 299.322L294.311 302.582L286.16 309.595L289.714 307.55L288.563 308.946L291.233 307.874L290.905 310.411L292.723 308.286L290.997 313.737Z" fill="#7D9CB3" fill-opacity="0.7"/>
<path d="M301.222 298.235L299.849 297.816L297.888 298.923L287.352 304.875L290.103 303.983L287.359 306.074L290.655 304.346L286.204 307.677L294.311 302.582L298.494 299.951L301.222 298.235Z" fill="#162C3D" fill-opacity="0.4"/>
<path d="M300.01 300.761L301.15 297.642L299.716 297.553L298.064 299.082C298.159 299.199 298.256 299.312 298.358 299.422C298.527 299.603 298.703 299.777 298.89 299.941C299.23 300.245 299.606 300.519 300.01 300.761Z" fill="#162C3D" fill-opacity="0.4"/>
<path d="M294.776 315.084L300.01 300.762L301.15 297.642L299.716 297.55L298.361 299.419L295.428 303.464L289.113 312.17L292.099 309.357L291.302 310.983L293.654 309.327L293.92 311.868L295.198 309.38L294.776 315.084Z" fill="#7D9CB3" fill-opacity="0.7"/>
<path d="M301.15 297.642L299.716 297.55L298.064 299.079L289.185 307.302L291.657 305.798L289.471 308.468L292.276 306.026L288.714 310.293L295.428 303.464L298.89 299.941L301.15 297.642Z" fill="#162C3D" fill-opacity="0.4"/>
<path d="M300.554 300.378L300.946 297.08L299.529 297.322L298.274 299.191C298.394 299.283 298.514 299.37 298.639 299.455C298.844 299.593 299.056 299.721 299.276 299.838C299.677 300.056 300.104 300.237 300.554 300.378Z" fill="#162C3D" fill-opacity="0.4"/>
<path d="M298.762 315.524L300.554 300.378L300.943 297.08L299.526 297.322L298.639 299.455L296.717 304.065L292.58 313.992L294.837 310.569L294.439 312.333L296.343 310.178L297.187 312.589L297.86 309.876L298.762 315.524Z" fill="#7D9CB3" fill-opacity="0.7"/>
<path d="M300.943 297.08L299.527 297.322L298.274 299.191L291.527 309.239L293.587 307.207L292.074 310.306L294.242 307.284L291.759 312.256L296.717 304.065L299.276 299.838L300.943 297.08Z" fill="#162C3D" fill-opacity="0.4"/>
<path d="M300.994 299.882L300.613 296.581L299.292 297.144L298.502 299.25C298.64 299.312 298.778 299.37 298.918 299.422C299.148 299.509 299.386 299.583 299.626 299.649C300.069 299.767 300.524 299.846 300.994 299.879V299.882Z" fill="#162C3D" fill-opacity="0.4"/>
<path d="M302.743 315.03L300.994 299.882L300.613 296.581L299.292 297.144L298.918 299.424L298.11 304.354L296.374 314.967L297.783 311.114L297.801 312.924L299.156 310.387L300.534 312.54L300.562 309.743L302.743 315.03Z" fill="#7D9CB3" fill-opacity="0.7"/>
<path d="M300.613 296.581L299.292 297.144L298.502 299.25L294.255 310.584L295.791 308.132L295.032 311.497L296.443 308.056L295.178 313.468L298.11 304.354L299.624 299.649L300.613 296.581Z" fill="#162C3D" fill-opacity="0.4"/>
<path d="M301.306 299.297L300.174 296.175L299.018 297.026L298.734 299.258C298.882 299.286 299.031 299.312 299.179 299.33C299.424 299.36 299.67 299.381 299.92 299.386C300.378 299.399 300.841 299.371 301.306 299.297Z" fill="#162C3D" fill-opacity="0.4"/>
<path d="M306.504 313.632L301.306 299.297L300.176 296.172L299.018 297.024L299.182 299.33L299.534 304.313L300.291 315.039L300.772 310.966L301.206 312.722L301.943 309.943L303.779 311.72L303.162 308.992L306.504 313.632Z" fill="#7D9CB3" fill-opacity="0.7"/>
<path d="M300.176 296.172L299.018 297.024L298.737 299.258L297.218 311.265L298.146 308.524L298.184 311.973L298.765 308.299L298.78 313.857L299.534 304.313L299.923 299.386L300.176 296.172Z" fill="#162C3D" fill-opacity="0.4"/>
<path d="M301.477 298.652L299.657 295.876L298.729 296.973L298.969 299.21C299.12 299.205 299.268 299.192 299.419 299.176C299.665 299.151 299.91 299.113 300.153 299.061C300.6 298.969 301.045 298.834 301.48 298.655L301.477 298.652Z" fill="#162C3D" fill-opacity="0.4"/>
<path d="M309.841 311.405L301.477 298.652L299.657 295.876L298.726 296.973L299.417 299.176L300.907 303.945L304.121 314.208L303.648 310.132L304.477 311.743L304.551 308.867L306.747 310.173L305.517 307.66L309.841 311.405Z" fill="#7D9CB3" fill-opacity="0.7"/>
<path d="M299.657 295.876L298.726 296.973L298.967 299.21L300.258 311.242L300.531 308.363L301.362 311.71L301.081 308L302.377 313.405L300.907 303.945L300.151 299.061L299.657 295.876Z" fill="#162C3D" fill-opacity="0.4"/>
<path d="M301.495 297.99L299.082 295.707L298.43 296.988L299.179 299.11C299.325 299.069 299.468 299.026 299.609 298.975C299.841 298.893 300.071 298.798 300.296 298.693C300.711 298.499 301.112 298.266 301.493 297.99H301.495Z" fill="#162C3D" fill-opacity="0.4"/>
<path d="M312.574 308.47L301.495 297.99L299.082 295.707L298.43 296.988L299.611 298.975L302.16 303.267L307.652 312.515L306.256 308.659L307.432 310.032L306.842 307.217L309.281 307.982L307.504 305.821L312.574 308.47Z" fill="#7D9CB3" fill-opacity="0.7"/>
<path d="M299.082 295.707L298.43 296.988L299.179 299.11L303.211 310.521L302.812 307.655L304.395 310.72L303.265 307.177L305.773 312.137L302.16 303.267L300.299 298.691L299.082 295.707Z" fill="#162C3D" fill-opacity="0.4"/>
<path d="M301.36 297.338L298.486 295.673L298.149 297.069L299.368 298.961C299.499 298.89 299.629 298.81 299.754 298.731C299.962 298.598 300.163 298.453 300.358 298.299C300.716 298.015 301.051 297.696 301.36 297.34V297.338Z" fill="#162C3D" fill-opacity="0.4"/>
<path d="M314.555 304.982L301.36 297.338L298.484 295.673L298.146 297.069L299.752 298.731L303.224 302.321L310.7 310.052L308.452 306.624L309.912 307.69L308.69 305.085L311.239 305.266L309.012 303.574L314.555 304.982Z" fill="#7D9CB3" fill-opacity="0.7"/>
<path d="M298.484 295.673L298.146 297.069L299.366 298.961L305.919 309.137L304.87 306.44L307.118 309.058L305.2 305.87L308.785 310.119L303.224 302.321L300.355 298.299L298.484 295.673Z" fill="#162C3D" fill-opacity="0.4"/>
<path d="M301.076 296.737L297.895 295.781L297.888 297.218L299.511 298.778C299.624 298.675 299.731 298.573 299.833 298.463C300.005 298.284 300.168 298.097 300.322 297.903C300.606 297.545 300.859 297.157 301.076 296.737Z" fill="#162C3D" fill-opacity="0.4"/>
<path d="M315.68 301.132L301.076 296.737L297.895 295.781L297.888 297.218L299.833 298.463L304.042 301.155L313.098 306.954L310.119 304.136L311.786 304.837L309.997 302.584L312.517 302.173L309.961 301.04L315.68 301.132Z" fill="#7D9CB3" fill-opacity="0.7"/>
<path d="M297.895 295.781L297.888 297.218L299.511 298.778L308.235 307.166L306.591 304.783L309.38 306.813L306.78 304.154L311.249 307.46L304.042 301.155L300.322 297.903L297.895 295.781Z" fill="#162C3D" fill-opacity="0.4"/>
<path d="M300.662 296.218L297.346 296.021L297.67 297.42L299.608 298.563C299.693 298.437 299.775 298.312 299.851 298.182C299.977 297.969 300.092 297.75 300.196 297.525C300.388 297.11 300.547 296.673 300.662 296.218Z" fill="#162C3D" fill-opacity="0.4"/>
<path d="M315.885 297.126L300.662 296.218L297.346 296.021L297.67 297.42L299.851 298.184L304.566 299.833L314.716 303.387L311.167 301.332L312.952 301.628L310.689 299.851L313.049 298.869L310.301 298.356L315.885 297.126Z" fill="#7D9CB3" fill-opacity="0.7"/>
<path d="M297.346 296.021L297.67 297.42L299.608 298.563L310.032 304.714L307.885 302.776L311.068 304.106L307.923 302.117L313.034 304.305L304.566 299.833L300.196 297.525L297.346 296.021Z" fill="#162C3D" fill-opacity="0.4"/>
<path d="M300.14 295.807L296.868 296.379L297.507 297.665L299.657 298.33C299.711 298.19 299.759 298.049 299.805 297.903C299.877 297.668 299.941 297.428 299.989 297.182C300.081 296.735 300.133 296.275 300.14 295.802V295.807Z" fill="#162C3D" fill-opacity="0.4"/>
<path d="M315.161 293.178L300.14 295.807L296.868 296.379L297.507 297.668L299.805 297.906L304.773 298.425L315.468 299.542L311.541 298.361L313.346 298.238L310.735 297.031L312.804 295.53L310.012 295.663L315.161 293.178Z" fill="#7D9CB3" fill-opacity="0.7"/>
<path d="M296.868 296.379L297.507 297.668L299.657 298.332L311.219 301.914L308.68 300.521L312.083 301.084L308.567 299.874L314.044 300.823L304.773 298.425L299.989 297.187L296.868 296.379Z" fill="#162C3D" fill-opacity="0.4"/>
<path d="M299.537 295.528L296.484 296.839L297.402 297.944L299.647 298.097C299.667 297.949 299.683 297.798 299.693 297.65C299.708 297.404 299.713 297.156 299.706 296.906C299.693 296.448 299.637 295.988 299.534 295.528H299.537Z" fill="#162C3D" fill-opacity="0.4"/>
<path d="M313.548 289.507L299.537 295.528L296.487 296.84L297.405 297.944L299.695 297.65L304.648 297.008L315.315 295.628L311.221 295.385L312.947 294.848L310.129 294.275L311.796 292.337L309.109 293.114L313.548 289.507Z" fill="#7D9CB3" fill-opacity="0.7"/>
<path d="M296.487 296.84L297.405 297.944L299.649 298.098L311.725 298.916L308.935 298.146L312.377 297.908L308.675 297.543L314.223 297.203L304.648 297.008L299.708 296.906L296.487 296.84Z" fill="#162C3D" fill-opacity="0.4"/>
<path d="M298.888 295.395L296.221 297.374L297.369 298.238L299.588 297.867C299.573 297.716 299.555 297.568 299.529 297.42C299.488 297.177 299.437 296.934 299.371 296.693C299.253 296.254 299.092 295.817 298.888 295.392V295.395Z" fill="#162C3D" fill-opacity="0.4"/>
<path d="M311.132 286.306L298.888 295.395L296.221 297.376L297.369 298.241L299.529 297.422L304.2 295.656L314.261 291.854L310.222 292.559L311.779 291.642L308.905 291.734L310.078 289.463L307.644 290.839L311.132 286.306Z" fill="#7D9CB3" fill-opacity="0.7"/>
<path d="M296.221 297.376L297.369 298.241L299.588 297.87L311.526 295.881L308.634 295.776L311.927 294.751L308.243 295.247L313.561 293.638L304.2 295.656L299.371 296.696L296.221 297.376Z" fill="#162C3D" fill-opacity="0.4"/>
<path d="M298.223 295.418L296.083 297.959L297.399 298.535L299.476 297.663C299.427 297.52 299.373 297.382 299.314 297.241C299.22 297.013 299.112 296.791 298.992 296.571C298.775 296.17 298.519 295.784 298.22 295.418H298.223Z" fill="#162C3D" fill-opacity="0.4"/>
<path d="M308.041 283.749L298.223 295.418L296.085 297.959L297.402 298.535L299.314 297.241L303.454 294.444L312.364 288.425L308.598 290.044L309.902 288.791L307.125 289.543L307.747 287.065L305.693 288.962L308.041 283.749Z" fill="#7D9CB3" fill-opacity="0.7"/>
<path d="M296.085 297.96L297.402 298.535L299.476 297.663L310.633 292.974L307.795 293.539L310.764 291.783L307.292 293.117L312.098 290.323L303.454 294.444L298.995 296.571L296.085 297.96Z" fill="#162C3D" fill-opacity="0.4"/>
<path d="M297.581 295.592L296.085 298.557L297.499 298.813L299.317 297.486C299.238 297.358 299.153 297.236 299.064 297.113C298.918 296.914 298.762 296.722 298.596 296.535C298.292 296.195 297.954 295.878 297.581 295.589V295.592Z" fill="#162C3D" fill-opacity="0.4"/>
<path d="M304.443 281.972L297.581 295.592L296.088 298.558L297.502 298.813L299.064 297.113L302.449 293.439L309.731 285.526L306.438 287.97L307.417 286.449L304.888 287.822L304.921 285.268L303.362 287.589L304.443 281.972Z" fill="#7D9CB3" fill-opacity="0.7"/>
<path d="M296.088 298.558L297.502 298.814L299.319 297.487L309.094 290.353L306.463 291.557L308.946 289.162L305.875 291.261L309.907 287.436L302.449 293.439L298.598 296.535L296.088 298.558Z" fill="#162C3D" fill-opacity="0.4"/>
<path d="M296.998 295.906L296.228 299.138L297.663 299.061L299.125 297.351C299.018 297.246 298.908 297.144 298.793 297.047C298.606 296.885 298.409 296.735 298.205 296.591C297.832 296.331 297.428 296.101 296.998 295.906Z" fill="#162C3D" fill-opacity="0.4"/>
<path d="M300.534 281.072L296.998 295.906L296.229 299.138L297.663 299.061L298.793 297.047L301.237 292.69L306.499 283.312L303.858 286.451L304.459 284.743L302.316 286.664L301.759 284.168L300.777 286.786L300.534 281.072Z" fill="#7D9CB3" fill-opacity="0.7"/>
<path d="M296.228 299.138L297.663 299.061L299.125 297.351L306.992 288.154L304.709 289.934L306.573 287.029L304.07 289.78L307.11 285.13L301.237 292.69L298.205 296.594L296.228 299.138Z" fill="#162C3D" fill-opacity="0.4"/>
<path d="M296.502 296.351L296.497 299.672L297.875 299.268L298.905 297.266C298.778 297.19 298.645 297.116 298.512 297.047C298.292 296.934 298.067 296.832 297.834 296.74C297.41 296.571 296.965 296.441 296.502 296.351Z" fill="#162C3D" fill-opacity="0.4"/>
<path d="M296.523 281.1L296.502 296.351L296.5 299.672L297.878 299.266L298.512 297.046L299.885 292.242L302.843 281.903L300.997 285.567L301.189 283.767L299.547 286.129L298.43 283.831L298.077 286.605L296.523 281.1Z" fill="#7D9CB3" fill-opacity="0.7"/>
<path d="M296.5 299.672L297.878 299.266L298.906 297.266L304.441 286.502L302.628 288.76L303.774 285.505L301.971 288.757L303.858 283.531L299.885 292.242L297.834 296.74L296.5 299.672Z" fill="#162C3D" fill-opacity="0.4"/>
<path d="M298.399 304.553C302.048 304.553 305.006 301.595 305.006 297.946C305.006 294.297 302.048 291.34 298.399 291.34C294.751 291.34 291.793 294.297 291.793 297.946C291.793 301.595 294.751 304.553 298.399 304.553Z" fill="#0F0E0E"/>
<path d="M298.755 313.97C298.755 313.97 310.805 310.188 311.589 299.902C312.185 302.022 312.009 303.656 311.763 304.696C310.646 309.454 305.469 313.121 298.755 313.97Z" fill="url(#paint11_linear_237_2033)"/>
<path d="M291.363 284.646C291.363 284.646 298.903 279.592 307.228 285.081L302.521 290.92C302.521 290.92 298.249 288.655 294.851 290.92L291.363 284.644V284.646Z" fill="url(#paint12_linear_237_2033)"/>
<path d="M292.235 292.667L287.267 287.699C287.267 287.699 279.988 297.287 285.35 305.916L289.796 304.172C289.443 303.298 288.454 300.511 289.448 297.197C290.151 294.858 291.514 293.357 292.238 292.664L292.235 292.667Z" fill="url(#paint13_linear_237_2033)"/>
<path d="M260.15 299.986C260.15 299.986 273.089 249.283 335.67 279.225C335.67 279.225 279.913 251.99 260.15 299.986Z" fill="#0F0E0E"/>
<path d="M249.446 256.107C248.787 258.228 248.179 260.636 247.737 263.313C247.253 266.205 247.037 268.881 246.996 271.29L246.43 271.465C246.399 267.049 246.738 258.856 249.446 256.107Z" fill="#4A1109"/>
<path d="M256.116 251.321C254.798 254.08 253.481 257.271 252.307 260.894C251.206 264.301 250.434 267.502 249.888 270.415L249.271 270.6C250.135 265.68 252.42 254.677 256.116 251.321Z" fill="#4A1109"/>
<path d="M263.207 246.226C261.077 249.571 258.73 253.853 256.733 259.051C255.313 262.746 254.335 266.205 253.655 269.272L252.132 269.735C253.357 264.681 257.34 250.055 263.207 246.226Z" fill="#4A1109"/>
<path d="M272.502 247.286C269.836 250.065 266.974 253.39 264.144 257.291C261.375 261.11 259.131 264.795 257.32 268.171L255.889 268.603C258.102 263.704 264.607 250.611 272.502 247.286Z" fill="#4A1109"/>
<path d="M256.115 264.578C256.115 264.578 261.025 249.582 268.611 246.226C266.974 248.069 265.286 250.117 263.619 252.392C260.459 256.684 258.009 260.832 256.115 264.578Z" fill="#4A1109"/>
<path d="M279.439 245.176C276.362 247.811 272.975 251.074 269.568 255.047C265.914 259.298 263.053 263.426 260.819 267.111L258.997 267.666C260.943 263.724 268.549 249.602 279.439 245.176Z" fill="#4A1109"/>
<path d="M286.819 243.375C282.702 246.998 278.4 251.043 274.025 255.552C270.587 259.113 267.417 262.602 264.535 265.989L262.621 266.565C265.884 262.407 278.853 246.37 286.819 243.375Z" fill="#4A1109"/>
<path d="M290.525 242.583C286.583 246.206 282.486 250.22 278.328 254.646C275.199 257.981 272.306 261.254 269.62 264.445L266.45 265.402C271.298 259.792 284.431 245.012 290.525 242.583Z" fill="#4A1109"/>
<path d="M298.996 240.822C294.518 243.818 289.475 247.657 284.287 252.484C280.397 256.107 277.072 259.689 274.262 263.045L271.318 263.94C275.888 258.835 291.75 241.677 298.996 240.822Z" fill="#4A1109"/>
<path d="M306.057 238.434C300.684 242.057 294.807 246.504 288.775 251.939C285.121 255.222 281.848 258.485 278.945 261.635L277.638 262.026C281.982 257.034 293.736 244.353 306.057 238.434Z" fill="#4A1109"/>
<path d="M314.518 236.757C309.268 240.092 303.566 244.075 297.668 248.851C293.139 252.505 289.084 256.149 285.481 259.648L282.877 260.441C289.001 254.574 307.2 237.673 314.518 236.757Z" fill="#4A1109"/>
<g filter="url(#filter5_f_237_2033)">
<path d="M227.665 374.25C229.223 374.25 230.486 372.453 230.486 370.236C230.486 368.019 229.223 366.222 227.665 366.222C226.108 366.222 224.845 368.019 224.845 370.236C224.845 372.453 226.108 374.25 227.665 374.25Z" fill="#F0D5CB"/>
</g>
<g filter="url(#filter6_f_237_2033)">
<path d="M172.464 381.98C169.099 396.226 143.87 405.829 110.377 404.862C104.325 391.532 98.9621 377.04 94.2067 360.56C89.616 344.627 87.1869 332.347 83.9858 316.115C83.6255 314.314 83.2858 312.544 82.9668 310.814C100.197 314.592 125.889 323.135 148.78 344.133C159.773 354.21 175.593 368.743 172.464 381.98Z" fill="#A85948"/>
</g>
<g filter="url(#filter7_f_237_2033)">
<path d="M352.478 334.046L352.416 334.385L347.218 362.99C346.951 364.389 346.693 365.738 346.446 367.035C342.803 386.077 340.826 394.795 338.469 402.7C338.15 403.204 337.831 403.719 337.512 404.223C337.512 404.223 228.19 353.86 352.478 334.046Z" fill="#A85948"/>
</g>
<g filter="url(#filter8_f_237_2033)">
<path d="M221.273 342.404C221.273 342.404 213.451 298.751 216.92 296.579C217.537 296.703 218.412 297.001 218.978 297.763C219.555 298.535 219.534 299.43 219.524 299.708C219.524 301.602 220.244 318.699 221.263 342.414L221.273 342.404Z" fill="#EAA992"/>
</g>
<g filter="url(#filter9_f_237_2033)">
<path d="M233.111 342.404C233.111 342.404 240.933 298.751 237.464 296.579C236.847 296.703 235.972 297.001 235.406 297.763C234.829 298.535 234.85 299.43 234.86 299.708C234.86 301.602 234.14 318.699 233.121 342.414L233.111 342.404Z" fill="#EAA992"/>
</g>
<g filter="url(#filter10_f_237_2033)">
<path d="M217.29 442.565C216.467 443.8 218.319 446.854 219.349 448.226C220.172 446.579 219.005 443.766 218.319 442.565C218.319 442.05 218.113 441.33 217.29 442.565Z" fill="white"/>
</g>
<path d="M258.063 315.134C258.063 310.092 258.113 295.423 268.286 284.31C282.818 268.568 305.033 270.831 311.988 271.552C327.248 273.095 338.147 279.989 343.441 283.796C339.082 286.471 334.826 289.146 330.466 291.719C329.324 290.484 316.178 275.742 296.454 279.034C293.963 279.446 283.508 281.323 275.826 289.349C275.099 290.069 272.006 292.357 267.231 299.663C262.871 306.454 260.346 311.224 258.063 315.134Z" fill="#834030"/>
<path d="M186.872 314.125C186.872 309.083 186.822 295.56 176.649 284.447C162.116 268.705 139.902 270.968 132.947 271.689C117.687 273.232 106.787 280.126 101.493 283.933C105.853 286.608 110.109 289.283 114.469 291.856C115.611 290.621 128.757 275.879 148.48 279.171C150.972 279.583 161.427 281.46 169.109 289.486C169.835 290.206 172.929 292.494 177.704 299.8C182.064 306.591 184.588 310.215 186.872 314.125Z" fill="#834030"/>
<g filter="url(#filter11_f_237_2033)">
<path d="M241.893 653.348C230.432 672.601 220.691 661.37 217.253 653.348L228.713 657.932L241.893 653.348Z" fill="#B56B57"/>
</g>
<path d="M69.4161 297.508L70.1094 288.34C71.2293 289.247 69.9894 292.326 69.4161 297.508Z" fill="#A37F74"/>
<path d="M96 277.6C96.2 278.1 98.8 285.8 106.1 288.7C107.1 289.1 110.7 290.5 114.9 289.6C117.4 289.1 119.1 288 119.6 287.6C124.3 284.6 136.7 280.9 146.3 281.7C162.1 282.9 173.5 296.2 179.3 303.6C182.7 307.8 184.8 311.2 185.2 311.8C184.9 311.3 182.9 307.3 179.6 302C179.3 301.5 179 301.1 178.7 300.6C172.2 290.7 167.6 285.9 165.7 284.4C165.3 284.1 165 283.9 164.5 283.4C162 281.3 161.7 280.8 161.5 280.4C161.2 279.7 161.2 279.3 161.1 277.6C161.1 276.4 161 274.6 160.8 272.4L160.3 280.1C159.5 279.7 158.3 279.1 156.8 278.5C150.8 276 148.5 276.3 147.1 274.5C146.1 273.3 145.4 270.9 147.1 266C146.9 266.4 145 270.6 146.5 276.2C145.4 276.4 139.5 277.2 134.5 273.1C131.9 271 130.6 268.4 130.1 267C130.7 269.7 132.3 273.8 136.6 276.8C135.9 276.9 130.9 277.6 127.4 274.1C126 272.7 125.3 271.2 125 270.2C125 270.2 123.7 272.1 129.1 277.1C129.1 277.1 125.3 279 119.3 268.4C119.4 268.8 121.1 274.9 125.5 277.7C125.5 277.7 118.5 281.5 112.5 271.4C112.7 272 114.6 277 118.3 279.1C118.3 279.1 112 280 107.9 271.5C108.3 272.4 111.3 279.6 115.9 280.3C115.9 280.3 111.7 282.9 105.7 273.9C106.1 274.7 109.1 280.7 112.6 281.5C112.6 281.5 106.6 285.3 98.3 273.6C98.8 274.5 103.3 281.4 105.9 283.1C105.5 283 99 284.9 96 277.6Z" fill="#211310"/>
<path d="M349 278.1C348.8 278.6 346.2 286.3 338.9 289.2C337.9 289.6 334.3 291 330.1 290.1C327.6 289.6 325.9 288.5 325.4 288.1C320.7 285.1 308.3 281.4 298.7 282.2C282.9 283.4 271.5 296.7 265.7 304.1C262.3 308.3 260.2 311.7 259.8 312.3C260.1 311.8 262.1 307.8 265.4 302.5C265.7 302 266 301.6 266.3 301.1C272.8 291.2 277.4 286.4 279.3 284.9C279.7 284.6 280 284.4 280.5 283.9C283 281.8 283.3 281.3 283.5 280.9C283.8 280.2 283.8 279.8 283.9 278.1C283.9 276.9 284 275.1 284.2 272.9L284.7 280.6C285.5 280.2 286.7 279.6 288.2 279C294.2 276.5 296.5 276.8 297.9 275C298.9 273.8 299.6 271.4 297.9 266.5C298.1 266.9 300 271.1 298.5 276.7C299.6 276.9 305.5 277.7 310.5 273.6C313.1 271.5 314.4 268.9 314.9 267.5C314.3 270.2 312.7 274.3 308.4 277.3C309.1 277.4 314.1 278.1 317.6 274.6C319 273.2 319.7 271.7 320 270.7C320 270.7 321.3 272.6 315.9 277.6C315.9 277.6 319.7 279.5 325.7 268.9C325.6 269.3 323.9 275.4 319.5 278.2C319.5 278.2 326.5 282 332.5 271.9C332.3 272.5 330.4 277.5 326.7 279.6C326.7 279.6 333 280.5 337.1 272C336.7 272.9 333.7 280.1 329.1 280.8C329.1 280.8 333.3 283.4 339.3 274.4C338.9 275.2 335.9 281.2 332.4 282C332.4 282 338.4 285.8 346.7 274.1C346.2 275 341.7 281.9 339.1 283.6C339.5 283.5 346 285.4 349 278.1Z" fill="#211310"/>
<defs>
<filter id="filter0_i_237_2033" x="-0.00305176" y="474" width="465.388" height="238.04" filterUnits="userSpaceOnUse" color-interpolation-filters="sRGB">
<feFlood flood-opacity="0" result="BackgroundImageFix"/>
<feBlend mode="normal" in="SourceGraphic" in2="BackgroundImageFix" result="shape"/>
<feColorMatrix in="SourceAlpha" type="matrix" values="0 0 0 0 0 0 0 0 0 0 0 0 0 0 0 0 0 0 127 0" result="hardAlpha"/>
<feOffset dy="30"/>
<feGaussianBlur stdDeviation="10"/>
<feComposite in2="hardAlpha" operator="arithmetic" k2="-1" k3="1"/>
<feColorMatrix type="matrix" values="0 0 0 0 0.709804 0 0 0 0 0.415686 0 0 0 0 0.341176 0 0 0 1 0"/>
<feBlend mode="normal" in2="shape" result="effect1_innerShadow_237_2033"/>
</filter>
<filter id="filter1_f_237_2033" x="239.342" y="587.766" width="165.545" height="77.3013" filterUnits="userSpaceOnUse" color-interpolation-filters="sRGB">
<feFlood flood-opacity="0" result="BackgroundImageFix"/>
<feBlend mode="normal" in="SourceGraphic" in2="BackgroundImageFix" result="shape"/>
<feGaussianBlur stdDeviation="5" result="effect1_foregroundBlur_237_2033"/>
</filter>
<filter id="filter2_f_237_2033" x="58.27" y="587.766" width="165.545" height="79.5933" filterUnits="userSpaceOnUse" color-interpolation-filters="sRGB">
<feFlood flood-opacity="0" result="BackgroundImageFix"/>
<feBlend mode="normal" in="SourceGraphic" in2="BackgroundImageFix" result="shape"/>
<feGaussianBlur stdDeviation="5" result="effect1_foregroundBlur_237_2033"/>
</filter>
<filter id="filter3_f_237_2033" x="175.752" y="328.749" width="100.599" height="88.6899" filterUnits="userSpaceOnUse" color-interpolation-filters="sRGB">
<feFlood flood-opacity="0" result="BackgroundImageFix"/>
<feBlend mode="normal" in="SourceGraphic" in2="BackgroundImageFix" result="shape"/>
<feGaussianBlur stdDeviation="10" result="effect1_foregroundBlur_237_2033"/>
</filter>
<filter id="filter4_f_237_2033" x="215.85" y="354.322" width="23.9571" height="24.1995" filterUnits="userSpaceOnUse" color-interpolation-filters="sRGB">
<feFlood flood-opacity="0" result="BackgroundImageFix"/>
<feBlend mode="normal" in="SourceGraphic" in2="BackgroundImageFix" result="shape"/>
<feGaussianBlur stdDeviation="2" result="effect1_foregroundBlur_237_2033"/>
</filter>
<filter id="filter5_f_237_2033" x="220.845" y="362.222" width="13.6406" height="16.0286" filterUnits="userSpaceOnUse" color-interpolation-filters="sRGB">
<feFlood flood-opacity="0" result="BackgroundImageFix"/>
<feBlend mode="normal" in="SourceGraphic" in2="BackgroundImageFix" result="shape"/>
<feGaussianBlur stdDeviation="2" result="effect1_foregroundBlur_237_2033"/>
</filter>
<filter id="filter6_f_237_2033" x="32.9668" y="260.814" width="189.9" height="194.114" filterUnits="userSpaceOnUse" color-interpolation-filters="sRGB">
<feFlood flood-opacity="0" result="BackgroundImageFix"/>
<feBlend mode="normal" in="SourceGraphic" in2="BackgroundImageFix" result="shape"/>
<feGaussianBlur stdDeviation="25" result="effect1_foregroundBlur_237_2033"/>
</filter>
<filter id="filter7_f_237_2033" x="243.073" y="284.046" width="159.405" height="170.178" filterUnits="userSpaceOnUse" color-interpolation-filters="sRGB">
<feFlood flood-opacity="0" result="BackgroundImageFix"/>
<feBlend mode="normal" in="SourceGraphic" in2="BackgroundImageFix" result="shape"/>
<feGaussianBlur stdDeviation="25" result="effect1_foregroundBlur_237_2033"/>
</filter>
<filter id="filter8_f_237_2033" x="212.032" y="292.579" width="13.2411" height="53.8347" filterUnits="userSpaceOnUse" color-interpolation-filters="sRGB">
<feFlood flood-opacity="0" result="BackgroundImageFix"/>
<feBlend mode="normal" in="SourceGraphic" in2="BackgroundImageFix" result="shape"/>
<feGaussianBlur stdDeviation="2" result="effect1_foregroundBlur_237_2033"/>
</filter>
<filter id="filter9_f_237_2033" x="229.111" y="292.579" width="13.2411" height="53.8347" filterUnits="userSpaceOnUse" color-interpolation-filters="sRGB">
<feFlood flood-opacity="0" result="BackgroundImageFix"/>
<feBlend mode="normal" in="SourceGraphic" in2="BackgroundImageFix" result="shape"/>
<feGaussianBlur stdDeviation="2" result="effect1_foregroundBlur_237_2033"/>
</filter>
<filter id="filter10_f_237_2033" x="214.085" y="438.883" width="8.54699" height="12.3433" filterUnits="userSpaceOnUse" color-interpolation-filters="sRGB">
<feFlood flood-opacity="0" result="BackgroundImageFix"/>
<feBlend mode="normal" in="SourceGraphic" in2="BackgroundImageFix" result="shape"/>
<feGaussianBlur stdDeviation="1.5" result="effect1_foregroundBlur_237_2033"/>
</filter>
<filter id="filter11_f_237_2033" x="210.253" y="646.348" width="38.6395" height="24.6306" filterUnits="userSpaceOnUse" color-interpolation-filters="sRGB">
<feFlood flood-opacity="0" result="BackgroundImageFix"/>
<feBlend mode="normal" in="SourceGraphic" in2="BackgroundImageFix" result="shape"/>
<feGaussianBlur stdDeviation="3.5" result="effect1_foregroundBlur_237_2033"/>
</filter>
<linearGradient id="paint0_linear_237_2033" x1="289.02" y1="583.02" x2="166.46" y2="583.02" gradientUnits="userSpaceOnUse">
<stop offset="0.46" stop-color="#D29076"/>
<stop offset="1" stop-color="#D29076"/>
</linearGradient>
<linearGradient id="paint1_linear_237_2033" x1="73.8175" y1="323.395" x2="73.8175" y2="374.261" gradientUnits="userSpaceOnUse">
<stop stop-color="#6A1C19"/>
<stop offset="0.595" stop-color="#A7594C"/>
<stop offset="1" stop-color="#82413C"/>
</linearGradient>
<linearGradient id="paint2_linear_237_2033" x1="373.018" y1="323.395" x2="373.018" y2="374.261" gradientUnits="userSpaceOnUse">
<stop stop-color="#6A1C19"/>
<stop offset="0.595" stop-color="#A7594C"/>
<stop offset="1" stop-color="#82413C"/>
</linearGradient>
<linearGradient id="paint3_linear_237_2033" x1="226.051" y1="348.749" x2="226.051" y2="397.439" gradientUnits="userSpaceOnUse">
<stop stop-color="#C1735D"/>
<stop offset="1" stop-color="#A25047"/>
</linearGradient>
<linearGradient id="paint4_linear_237_2033" x1="226.827" y1="428.913" x2="226.827" y2="459.298" gradientUnits="userSpaceOnUse">
<stop stop-color="#7F3431"/>
<stop offset="1" stop-color="#A45848"/>
</linearGradient>
<linearGradient id="paint5_linear_237_2033" x1="226.039" y1="408.083" x2="226.039" y2="436.389" gradientUnits="userSpaceOnUse">
<stop stop-color="#A45848"/>
<stop offset="1" stop-color="#7F3431"/>
</linearGradient>
<radialGradient id="paint6_radial_237_2033" cx="0" cy="0" r="1" gradientUnits="userSpaceOnUse" gradientTransform="translate(147.093 298.296) rotate(90) scale(18.5261)">
<stop offset="0.935" stop-color="#4A5E6D"/>
<stop offset="1" stop-color="#090E0E"/>
</radialGradient>
<linearGradient id="paint7_linear_237_2033" x1="140.365" y1="299.952" x2="140.365" y2="314.02" gradientUnits="userSpaceOnUse">
<stop stop-color="white" stop-opacity="0.4"/>
<stop offset="1" stop-color="white" stop-opacity="0.5"/>
</linearGradient>
<linearGradient id="paint8_linear_237_2033" x1="146.442" y1="282.573" x2="146.442" y2="290.971" gradientUnits="userSpaceOnUse">
<stop stop-color="white" stop-opacity="0.9"/>
<stop offset="1" stop-color="white" stop-opacity="0.4"/>
</linearGradient>
<linearGradient id="paint9_linear_237_2033" x1="152.324" y1="298.434" x2="162.295" y2="296.9" gradientUnits="userSpaceOnUse">
<stop stop-color="white" stop-opacity="0.2"/>
<stop offset="1" stop-color="white" stop-opacity="0.8"/>
</linearGradient>
<radialGradient id="paint10_radial_237_2033" cx="0" cy="0" r="1" gradientUnits="userSpaceOnUse" gradientTransform="translate(298.645 298.246) rotate(90) scale(18.5261)">
<stop offset="0.935" stop-color="#4A5E6D"/>
<stop offset="1" stop-color="#090E0E"/>
</radialGradient>
<linearGradient id="paint11_linear_237_2033" x1="305.373" y1="299.902" x2="305.373" y2="313.97" gradientUnits="userSpaceOnUse">
<stop stop-color="white" stop-opacity="0.4"/>
<stop offset="1" stop-color="white" stop-opacity="0.5"/>
</linearGradient>
<linearGradient id="paint12_linear_237_2033" x1="299.296" y1="282.523" x2="299.296" y2="290.92" gradientUnits="userSpaceOnUse">
<stop stop-color="white" stop-opacity="0.9"/>
<stop offset="1" stop-color="white" stop-opacity="0.4"/>
</linearGradient>
<linearGradient id="paint13_linear_237_2033" x1="293.414" y1="298.384" x2="283.442" y2="296.85" gradientUnits="userSpaceOnUse">
<stop stop-color="white" stop-opacity="0.2"/>
<stop offset="1" stop-color="white" stop-opacity="0.8"/>
</linearGradient>
</defs>
</svg>
